<svg fill="none" viewBox="0 0 22 20">
	<path fill="currentColor" fill-rule="evenodd" d="M22 17c0-1.3-.8-2.4-2-2.8V5.8c1.2-.4 2-1.5 2-2.8 0-1.7-1.3-3-3-3-1.3 0-2.4.8-2.8 2H5.8C5.4.8 4.3 0 3 0 1.3 0 0 1.3 0 3c0 1.3.8 2.4 2 2.8v8.3c-1.2.4-2 1.5-2 2.8 0 1.7 1.3 3 3 3 1.3 0 2.4-.8 2.8-2h10.3c.4 1.2 1.5 2 2.8 2 1.8.1 3.1-1.2 3.1-2.9zM18 5.8v8.3c-.9.3-1.5 1-1.8 1.8H5.8c-.3-.9-1-1.5-1.8-1.8V5.8c.9-.3 1.5-1 1.8-1.8h10.3c.4.9 1 1.5 1.9 1.8zM3 4c.6 0 1-.4 1-1s-.4-1-1-1-1 .4-1 1 .4 1 1 1zm17-1c0 .6-.4 1-1 1s-1-.4-1-1 .4-1 1-1 1 .4 1 1zM3 18c.6 0 1-.4 1-1s-.4-1-1-1-1 .4-1 1 .4 1 1 1zm17-1c0 .6-.4 1-1 1s-1-.4-1-1 .4-1 1-1 1 .4 1 1z" clip-rule="evenodd"/>
</svg>
