<svg fill="none" viewBox="0 0 22 22">
	<path fill="currentColor" fill-rule="evenodd" d="M22 11c0-6.1-4.9-11-11-11S0 4.9 0 11s4.9 11 11 11 11-4.9 11-11zM2.6 7.7c.9-2.3 2.7-4.1 5-5-.5 1-1 2.3-1.2 3.8-1.4.2-2.7.6-3.8 1.2zm11.7-5.1c.5 1 1 2.3 1.2 3.8 1.5.3 2.7.7 3.8 1.2-.9-2.2-2.7-4-5-5zM2 11c0-.9 1.6-1.9 4.1-2.5C6 9.3 6 10.2 6 11s0 1.7.1 2.5C3.6 12.9 2 11.9 2 11zm14 0c0 .8 0 1.7-.1 2.5 2.5-.6 4.1-1.6 4.1-2.5s-1.6-1.9-4.1-2.5c.1.8.1 1.7.1 2.5zM2.6 14.3c1 .5 2.3 1 3.8 1.2.3 1.5.7 2.7 1.2 3.8-2.2-.9-4-2.7-5-5zm13 1.3c-.3 1.5-.7 2.7-1.2 3.8 2.3-.9 4.1-2.7 5-5-1.1.5-2.4.9-3.8 1.2zM8 11c0-1 .1-1.9.2-2.8C9.1 8.1 10 8 11 8s1.9.1 2.8.2c.1.9.2 1.8.2 2.8s-.1 1.9-.2 2.8c-.9.1-1.8.2-2.8.2s-1.9-.1-2.8-.2C8.1 12.9 8 12 8 11zm.5 4.9c.6 2.5 1.6 4.1 2.5 4.1s1.9-1.6 2.5-4.1c-.8.1-1.7.1-2.5.1s-1.7 0-2.5-.1zM11 2c-.9 0-1.9 1.6-2.5 4.1C9.3 6 10.2 6 11 6s1.7 0 2.5.1C12.9 3.6 11.9 2 11 2z" clip-rule="evenodd"/>
</svg>
