<svg fill="none" viewBox="0 0 22 22">
	<path fill="currentColor" fill-rule="evenodd" d="M17.6 13.4l1.5 1.5c.4-.9.7-1.9.8-2.9H22v-2h-2.1c-.5-4.2-3.8-7.5-7.9-7.9V0h-2v2.1c-1 .1-2 .4-2.9.8l1.5 1.5c.8-.3 1.6-.4 2.4-.4 3.9 0 7 3.1 7 7 0 .8-.1 1.6-.4 2.4zM12 19.9c1.7-.2 3.3-.9 4.6-1.9l3.7 3.7 1.4-1.4-20-20L.3 1.7 4 5.4C3 6.7 2.3 8.3 2.1 10H0v2h2.1c.5 4.2 3.8 7.5 7.9 7.9V22h2v-2.1zM4 11c0-1.6.5-3 1.4-4.2L7.6 9c-.4.6-.6 1.3-.6 2 0 2.2 1.8 4 4 4 .7 0 1.4-.2 2-.6l2.2 2.2C14 17.5 12.6 18 11 18c-3.9 0-7-3.1-7-7zm5.1-.5c-.1.1-.1.3-.1.5 0 1.1.9 2 2 2 .2 0 .4 0 .5-.1l-2.4-2.4z" clip-rule="evenodd"/>
</svg>
