<svg fill="none" viewBox="0 0 20 20.7">
	<path fill="currentColor" fill-rule="evenodd" d="M4 20.7c1.3 0 2.4-.8 2.8-2h8.7c2.5 0 4.5-2 4.5-4.5s-2-4.5-4.5-4.5h-11C3.1 9.7 2 8.6 2 7.2s1.1-2.5 2.5-2.5h3.1L6.3 6l1.4 1.4 3.7-3.7L7.7 0 6.3 1.4l1.3 1.3H4.5C2 2.7 0 4.7 0 7.2s2 4.5 4.5 4.5h11c1.4 0 2.5 1.1 2.5 2.5s-1.1 2.5-2.5 2.5H6.8c-.4-1.2-1.5-2-2.8-2-1.7 0-3 1.3-3 3s1.3 3 3 3zm-1-3c0-.6.4-1 1-1s1 .4 1 1-.4 1-1 1-1-.4-1-1zm13-17c1.7 0 3 1.3 3 3s-1.3 3-3 3-3-1.3-3-3c0-1.6 1.3-3 3-3zm-1 3c0-.6.4-1 1-1s1 .4 1 1-.4 1-1 1-1-.4-1-1z" clip-rule="evenodd"/>
</svg>
