<svg fill="none" viewBox="0 0 22 19.5">
	<path fill="currentColor" fill-rule="evenodd" d="M6 6V3.4l5 5 6.7-6.7L16.3.3 11 5.6 7.4 2H10V0H4v6h2zm7.4 9.3c-.6-.2-1.5-.3-2.4-.3-.9 0-1.8.1-2.4.3-.3.1-.5.2-.6.3v.9c0 .6 0 .8-.1 1.2-.1.7-.5 1.3-1.3 1.3-2 .3-3.4.5-4.1.5C1 19.5 0 18.2 0 17v-1.5C0 11.8 5 9 11 9s11 2.8 11 6.5V17c0 1.2-1 2.5-2.5 2.5-.7 0-2.1-.2-4.1-.5-1.1 0-1.3-.8-1.4-2v-1.4c-.1-.1-.3-.2-.6-.3zM6 16.5v-1c0-1.8 2.2-2.5 5-2.5s5 .7 5 2.5V17c1.8.3 2.9.4 3.5.4.2 0 .5-.3.5-.5v-1.5c0-2.3-4-4.5-9-4.5s-9 2.2-9 4.5V17c0 .2.3.5.5.5.6 0 1.7-.1 3.5-.4v-.6z" clip-rule="evenodd"/>
</svg>
