<svg fill="none" viewBox="0 0 20 20">
	<path fill="currentColor" fill-rule="evenodd" d="M8.9 6.3c.5-.7.7-1.4.1-2-1.3-1.8-2.2-3-2.8-3.5-1.1-1-2.8-.9-3.7 0-.5.4-.6.6-1.1 1.1-2.8 2.8-1.1 8.7 3.5 13.3 4.5 4.6 10.5 6.3 13.3 3.5.5-.4.9-.8 1.2-1.2.9-.9 1-2.6 0-3.7-.5-.6-1.6-1.4-3.5-2.8-.6-.5-1.3-.4-1.9 0-.3.2-.5.4-1 .8l-.8.8c-.1.1-1.5-.6-2.8-1.9C8 9.4 7.3 8 7.4 7.9l.8-.8c.1-.1.1-.2.2-.3.2-.1.3-.3.5-.5zm4.6 7.7l.8-.8.5-.5c1.7 1.2 2.7 2 3 2.4.2.2.2.7 0 .9l-1.1 1.1c-1.8 1.8-6.6.4-10.5-3.4C2.4 9.9 1 5.1 2.8 3.3l1.1-1.1c.2-.2.7-.2.9 0 .4.4 1.2 1.4 2.4 3-.1.1-.1.2-.2.3-.1 0-.1.1-.3.2l-.7.8c-1.3 1.3-.2 3.5 1.9 5.6 2.1 2.1 4.3 3.2 5.6 1.9zM13 0h2v8h-2V0zm6 0h-2v8h2V0z" clip-rule="evenodd"/>
</svg>
