<svg fill="none" viewBox="0 0 22 10.5">
	<path fill="currentColor" fill-rule="evenodd" d="M11 6c.9 0 1.8.1 2.4.3.3.1.5.2.6.3V8c.1 1.1.3 1.9 1.4 2 2 .3 3.4.5 4.1.5C21 10.5 22 9.2 22 8V6.5C22 2.8 17 0 11 0S0 2.8 0 6.5V8c0 1.2 1 2.5 2.5 2.5.7 0 2.1-.2 4.1-.5.8 0 1.2-.6 1.3-1.3.1-.4.1-.6.1-1.2v-.9c.1-.1.3-.2.6-.3.6-.2 1.5-.3 2.4-.3zm-5 .5v1.6c-1.8.3-2.9.4-3.5.4-.2 0-.5-.3-.5-.5V6.5C2 4.2 6 2 11 2s9 2.2 9 4.5V8c0 .2-.3.5-.5.5-.6 0-1.7-.1-3.5-.4V6.6C16 4.7 13.8 4 11 4s-5 .7-5 2.5z" clip-rule="evenodd"/>
</svg>
