<svg fill="none" viewBox="0 0 21.4 21.4">
	<path fill="currentColor" fill-rule="evenodd" d="M0 20l1.4 1.4 4.8-4.8c4.4 4 9.9 5.4 12.6 2.8.5-.4.9-.8 1.2-1.2.9-.9 1-2.6 0-3.7-.5-.6-1.6-1.4-3.5-2.8-.6-.5-1.3-.4-1.9 0-.3.2-.5.4-1 .8l-.8.8c-.1.1-1-.4-2.1-1.2L21.4 1.4 20 0 0 20zm9.3-6.5l-1.7 1.7c3.7 3.3 8 4.5 9.7 2.7.5-.4.8-.8 1.1-1.1.2-.2.2-.7 0-.9-.4-.4-1.4-1.2-3-2.4-.1.1-.3.2-.5.5l-.8.8c-1 1.1-2.9.4-4.8-1.3zM8.1 8.6s0 .2.2.5l-1.5 1.5C6 9.3 5.8 8 6.7 7.2l.8-.8c.1-.1.2-.2.2-.3.1 0 .1-.1.2-.2-1.2-1.6-1.9-2.6-2.4-3-.2-.2-.7-.2-.9 0-.5.4-.6.6-1.1 1.1-1.5 1.5-.8 5 1.6 8.3l-1.4 1.4C.6 9.6-.3 5 2.1 2.6l1.2-1.2c.9-.9 2.6-1 3.7 0C7.5 2 8.4 3.1 9.7 5c.6.6.4 1.4-.1 2.1-.2.1-.3.3-.5.5-.1 0-.1.1-.3.2l-.7.8z" clip-rule="evenodd"/>
</svg>
