<svg fill="none" viewBox="0 0 20 20">
	<path fill="currentColor" fill-rule="evenodd" d="M9 4.3c.6.6.4 1.4-.1 2.1-.2.1-.3.3-.5.4-.1.1-.1.2-.3.3l-.7.8c-.1.1.6 1.5 1.9 2.8 1.3 1.3 2.7 2 2.8 1.9l.8-.8c.4-.4.6-.6 1-.8.6-.4 1.3-.5 1.9 0 1.9 1.4 3 2.2 3.5 2.8 1 1.1.9 2.7 0 3.7l-1.2 1.2c-2.8 2.8-8.7 1.1-13.3-3.5C.3 10.6-1.4 4.7 1.4 1.9c.5-.5.6-.7 1.1-1.2.9-.9 2.6-1 3.7 0 .6.6 1.5 1.7 2.8 3.6zm5.3 9l-.8.7c-1.3 1.3-3.5.2-5.6-1.9C5.8 10 4.7 7.8 6 6.5l.8-.8c.1-.1.1-.2.2-.2.1-.1.2-.2.2-.3-1.2-1.6-2-2.6-2.4-3-.2-.3-.7-.2-.9 0-.5.4-.6.6-1.1 1.1C1 5.1 2.4 9.9 6.2 13.8c3.9 3.9 8.7 5.3 10.5 3.4.5-.4.8-.8 1.1-1.1.2-.2.2-.7 0-.9-.4-.4-1.4-1.2-3-2.4-.1.1-.3.2-.5.5zm-1.6-4.6L18 3.4V7h2V0h-7v2h3.6l-5.3 5.3 1.4 1.4z" clip-rule="evenodd"/>
</svg>
