<svg fill="none" viewBox="0 0 20 20">
	<path fill="currentColor" fill-rule="evenodd" d="M0 3c0 1.7 1.3 3 3 3s3-1.3 3-3-1.3-3-3-3-3 1.3-3 3zm4 0c0 .6-.4 1-1 1s-1-.4-1-1 .4-1 1-1 1 .4 1 1zm6 3C8.3 6 7 4.7 7 3s1.3-3 3-3 3 1.3 3 3-1.3 3-3 3zm1-3c0 .6-.4 1-1 1s-1-.4-1-1 .4-1 1-1 1 .4 1 1zm6 3c-1.7 0-3-1.3-3-3s1.3-3 3-3 3 1.3 3 3-1.3 3-3 3zm1-3c0 .6-.4 1-1 1s-1-.4-1-1 .4-1 1-1 1 .4 1 1zM3 13c-1.7 0-3-1.3-3-3s1.3-3 3-3 3 1.3 3 3-1.3 3-3 3zm1-3c0 .6-.4 1-1 1s-1-.4-1-1 .4-1 1-1 1 .4 1 1zm6 3c-1.7 0-3-1.3-3-3s1.3-3 3-3 3 1.3 3 3-1.3 3-3 3zm1-3c0 .6-.4 1-1 1s-1-.4-1-1 .4-1 1-1 1 .4 1 1zm6 3c-1.7 0-3-1.3-3-3s1.3-3 3-3 3 1.3 3 3-1.3 3-3 3zm1-3c0 .6-.4 1-1 1s-1-.4-1-1 .4-1 1-1 1 .4 1 1zm-8 10c-1.7 0-3-1.3-3-3s1.3-3 3-3 3 1.3 3 3-1.3 3-3 3zm1-3c0 .6-.4 1-1 1s-1-.4-1-1 .4-1 1-1 1 .4 1 1z" clip-rule="evenodd"/>
</svg>
