<svg fill="none" viewBox="0 0 22 18.4">
	<path fill="currentColor" fill-rule="evenodd" d="M13.4 6.3c-.6-.2-1.5-.3-2.4-.3-.9 0-1.8.1-2.4.3-.3.1-.5.2-.6.3v.9c0 .6 0 .8-.1 1.2-.1.7-.5 1.3-1.3 1.3-2 .3-3.4.5-4.1.5C1 10.5 0 9.2 0 8V6.5C0 2.8 5 0 11 0s11 2.8 11 6.5V8c0 1.2-1 2.5-2.5 2.5-.7 0-2.1-.2-4.1-.5-1.1 0-1.3-.8-1.4-2V6.6c-.1-.1-.3-.2-.6-.3zM6 7.5v-1C6 4.7 8.2 4 11 4s5 .7 5 2.5V8c1.8.3 2.9.4 3.5.4.2.1.5-.2.5-.4V6.5C20 4.2 16 2 11 2S2 4.2 2 6.5V8c0 .2.3.5.5.5.6 0 1.7-.1 3.5-.4v-.6zM10 9v5.6l-2.3-2.3-1.4 1.4 4.7 4.7 4.7-4.7-1.4-1.4-2.3 2.3V9h-2z" clip-rule="evenodd"/>
</svg>
