<svg fill="none" viewBox="0 0 20 20">
	<path fill="currentColor" fill-rule="evenodd" d="M20 8.5c0 2.5-2.1 4.5-4.7 4.5H11v1.2c.9.3 1.5 1 1.8 1.8H18v2h-5.2c-.4 1.2-1.5 2-2.8 2s-2.4-.8-2.8-2H2v-2h5.2c.3-.9 1-1.5 1.8-1.8V13H5.2C2.4 13 0 10.8 0 8c0-2.3 1.7-4.3 4-4.9C5.2 1.2 7.5 0 10 0c3 0 5.6 1.7 6.5 4.1 2 .6 3.5 2.3 3.5 4.4zM11 17c0 .6-.4 1-1 1s-1-.4-1-1 .4-1 1-1 1 .4 1 1zm4.6-11C17 6.2 18 7.2 18 8.5c0 1.4-1.2 2.5-2.7 2.5H5.2C3.4 11 2 9.6 2 8c0-1.5 1.2-2.8 2.8-3h.5l.2-.5C6.3 3 8 2 10 2c2.3 0 4.3 1.4 4.7 3.2l.2.7.7.1z" clip-rule="evenodd"/>
</svg>
