<svg fill="none" viewBox="0 0 20 20">
	<path fill="currentColor" fill-rule="evenodd" d="M9.2 8c-1.8-.2-4.1.6-5.7 2.2-2 2-1.9 4.5 0 6.4 1.9 1.9 4.4 1.9 6.3-.1 1.6-1.6 2.4-3.9 2.2-5.6-.1-.8-.4-1.5-.9-2S10 8.1 9.2 8zm4 .3L15 6.4l.7.5c.6.4 1.4.3 1.9-.2.6-.6.6-1.5 0-2.1-.2-.2-.5-.4-.8-.4L16 4l-.1-.7c0-.3-.2-.6-.4-.8-.6-.6-1.5-.6-2.1 0-.5.5-.6 1.3-.2 1.9l.4.6-1.8 1.8c.2.2.5.4.7.6.3.3.5.6.7.9zM9.7 6.1l1.4-1.4c-.5-1.3-.2-2.7.8-3.7 1.4-1.4 3.6-1.4 4.9 0 .4.4.7.8.8 1.3.5.2.9.5 1.3.8 1.4 1.4 1.4 3.6 0 5-1 1-2.4 1.3-3.7.8l-1.4 1.4c.4 2.5-.7 5.5-2.7 7.6-2.7 2.8-6.4 2.7-9.1.1-2.6-2.6-2.7-6.4.1-9.2 2-2.1 5.1-3.1 7.6-2.7z" clip-rule="evenodd"/>
</svg>
