<svg fill="none" viewBox="0 0 14 22">
	<path fill="currentColor" fill-rule="evenodd" d="M6 22v-4H1.8c-1 0-1.8-.9-1.8-2V7c0-3.9 3.1-7 7-7s7 3.1 7 7v9c0 1.1-.8 2-1.8 2H8v4H6zm5.7-9.7l-.1.1c-.1.1-.2.1-.2.2-.5.3-.9.4-1.4.4-.6 0-1-.1-1.9-.6-.3-.2-.5-.2-.6-.3-.2-.1-.4-.1-.5-.1-.2 0-.4.1-.9.3-.1 0-.1 0-.2.1-.8.4-1.3.6-1.9.6-.6 0-1.1-.2-2-.6V16h10v-3.8c-.1 0-.2.1-.3.1zM7 2c2.8 0 5 2.2 5 5v3.1c-.6.1-1 .3-1.4.6-.1 0-.2.1-.2.2-.1 0-.1.1-.1.1H10c-.2 0-.4-.1-1-.4l-.8-.4c-.4-.1-.8-.2-1.2-.2-.6 0-1.1.2-1.8.5H5c-.5.4-.8.5-1 .5-.2 0-.5-.1-1.1-.4-.4-.2-.7-.3-.9-.4V7c0-2.8 2.2-5 5-5z" clip-rule="evenodd"/>
</svg>
