<svg fill="none" viewBox="0 0 20 22">
	<path fill="currentColor" fill-rule="evenodd" d="M11.9 1.3C14.8 2.1 17 4.9 17 9c0 2.6.5 4.1 1.5 5.2l.9.9.3.3.3.3V19h-6.1c-.3 1-.9 1.8-1.8 2.4-1.3.8-2.9.8-4.2 0-1-.6-1.6-1.3-1.8-2.4H0v-3.4l.3-.3.3-.3.9-.9c1-1 1.5-2.5 1.5-5.1 0-4.1 2.2-6.9 5.1-7.7.1-.3.3-.5.5-.8.8-.7 2-.7 2.7 0 .3.3.5.5.6.8zM8.2 19h3.6c-.2.3-.4.5-.7.7-.6.4-1.4.4-2.1 0-.4-.2-.7-.4-.8-.7zm9.8-2.6c-.3-.3-.7-.7-1-.9-1.3-1.5-2-3.4-2-6.5 0-3.8-2.3-6-5-6S5 5.2 5 9c0 3.1-.7 5.1-2 6.5-.2.2-.7.6-1 .9v.6h16v-.6zM14 12v-2H6v2h8z" clip-rule="evenodd"/>
</svg>
