<svg fill="none" viewBox="0 0 20 22">
	<path fill="currentColor" fill-rule="evenodd" d="M14.2 5.5C13.2 3.9 11.7 3 10 3 7.3 3 5 5.2 5 9c0 3.1-.7 5.1-2 6.5-.2.2-.7.6-1 .9v.6h16v-.6c-.3-.3-.7-.7-1-.9l-.9-1.2 1.5-1.5c.2.5.5 1 .9 1.4l.9.9.3.3.3.3V19h-6.1c-.3 1-.9 1.8-1.8 2.4-1.3.8-2.9.8-4.2 0-1-.6-1.6-1.3-1.8-2.4H0v-3.4l.3-.3.3-.3.9-.9c1-1 1.5-2.5 1.5-5.1 0-4.1 2.2-6.9 5.1-7.7.1-.3.3-.5.5-.8.8-.7 2-.7 2.7 0 .2.2.4.5.5.7 1.5.4 2.8 1.4 3.7 2.8l-1.3 1.5zM8.2 19c.1.3.4.5.8.7.6.4 1.4.4 2.1 0 .3-.2.5-.4.7-.7H8.2zm9.1-12.7L13 10.6l-2.3-2.3-1.4 1.4 3.7 3.7 5.7-5.7-1.4-1.4z" clip-rule="evenodd"/>
</svg>
