<svg fill="none" viewBox="0 0 21.4 22">
	<path fill="currentColor" fill-rule="evenodd" d="M17.7 13.8V9c0-4.1-2.2-6.9-5.1-7.7-.1-.3-.3-.5-.5-.7-.8-.7-2-.7-2.7 0-.3.2-.5.4-.6.7-.8.2-1.6.7-2.3 1.2L7.9 4c.8-.7 1.8-1 2.8-1 2.7 0 5 2.2 5 6 0 1.2.1 2.2.3 3.1l1.7 1.7zm-4.9 7.6c.9-.6 1.5-1.4 1.8-2.4h2.7l2.7 2.7 1.4-1.4-20-20L0 1.7l4.2 4.2c-.3.9-.5 2-.5 3.1 0 2.6-.5 4.1-1.5 5.2-.2.2-.6.6-.9.8l-.3.3-.3.3V19h6.1c.2 1.1.8 1.8 1.8 2.4 1.3.8 2.9.8 4.2 0zm-7-13.9l9.5 9.5H2.7v-.6c.3-.3.7-.7 1-.9 1.3-1.5 2-3.4 2-6.5 0-.5.1-1 .1-1.5zM8.9 19h3.6c-.2.3-.4.5-.7.7-.6.4-1.4.4-2.1 0-.4-.2-.7-.4-.8-.7z" clip-rule="evenodd"/>
</svg>
