<svg fill="none" viewBox="0 0 20 22">
	<path fill="currentColor" fill-rule="evenodd" d="M17 9c0-4.1-2.2-6.9-5.1-7.7-.1-.3-.3-.5-.5-.7-.8-.7-2-.7-2.7 0-.3.2-.5.4-.6.7C5.2 2.1 3 4.9 3 9c0 2.6-.5 4.1-1.5 5.2l-.9.9c-.1.1-.3.2-.3.3l-.3.2V19h6.1c.2 1.1.8 1.8 1.8 2.4 1.3.8 2.9.8 4.2 0 .9-.6 1.5-1.4 1.8-2.4H20v-3.4l-.3-.3-.3-.3c-.3-.3-.8-.7-.9-.9-1-1-1.5-2.5-1.5-5.1zm-5.3 10H8.2c.1.3.4.5.8.7.6.4 1.4.4 2.1 0 .2-.2.5-.4.6-.7zm5.3-3.5c.2.2.7.7 1 .9v.6H2v-.6c.3-.3.7-.7 1-.9C4.3 14 5 12.1 5 9c0-3.8 2.3-6 5-6s5 2.2 5 6c0 3.1.7 5.1 2 6.5z" clip-rule="evenodd"/>
</svg>
