<svg fill="none" viewBox="0 0 22 22">
	<path fill="currentColor" fill-rule="evenodd" d="M22 11c0-6.1-4.9-11-11-11S0 4.9 0 11s4.9 11 11 11 11-4.9 11-11zM2 11c0-5 4-9 9-9s9 4 9 9-4 9-9 9-9-4-9-9zm7.2 1.5l1.4 1.5c-.7.6-1.7 1-2.7 1C5.7 15 4 13.2 4 11s1.7-4 3.9-4c1.1 0 2.1.4 2.8 1.2L9.3 9.6c-.4-.4-.9-.6-1.4-.6-1 0-1.9.9-1.9 2s.9 2 1.9 2c.5 0 1-.2 1.3-.5zm8.4 1.4l-1.4-1.5c-.4.3-.8.5-1.3.5-1.1 0-1.9-.9-1.9-2s.9-2 1.9-2c.5 0 1 .2 1.4.6l1.4-1.4C17 7.4 16 7 14.9 7 12.7 7 11 8.8 11 11s1.7 4 3.9 4c1 0 2-.4 2.7-1.1z" clip-rule="evenodd"/>
</svg>
