<svg fill="none" viewBox="0 0 22 22">
	<path fill="currentColor" fill-rule="evenodd" d="M11 22C4.9 22 0 17.1 0 11S4.9 0 11 0s11 4.9 11 11-4.9 11-11 11zm8.9-9.5c-1.9-.4-3.7-.6-5.4-.3.8 2.1 1.5 4.1 1.8 6.1 1.8-1.4 3.2-3.4 3.6-5.8zm-5.5 6.8c-.4-2.2-1-4.4-2-6.7-2.7.8-5 2.6-7.1 5.4 1.5 1.2 3.5 2 5.6 2 1.3 0 2.5-.2 3.5-.7zM3.9 16.6c2.2-2.9 4.8-4.8 7.7-5.8L11 9.6c-.5.1-1 .3-1.6.4-2.2.4-4.2.5-7.3.4H2v.6c0 2.1.7 4.1 1.9 5.6zM2.4 8.4C3.1 6 4.8 4.1 7 3c1.2 1.6 2.2 3.3 3.1 4.8-.4.1-.7.1-1 .2-2 .4-3.8.5-6.7.4zm6.5-6.2c1.2 1.7 2.2 3.3 3.1 4.9 1.9-.7 3.4-1.8 4.4-3.4C14.9 2.7 13 2 11 2c-.7 0-1.4.1-2.1.2zm9 3c1.2 1.4 2 3.3 2.1 5.3-2.3-.5-4.4-.6-6.4-.2-.2-.4-.4-.9-.6-1.3 2-.9 3.7-2.1 4.9-3.8z" clip-rule="evenodd"/>
</svg>
