<svg fill="none" viewBox="0 0 18 20">
	<path fill="currentColor" fill-rule="evenodd" d="M7 18v.4c0 .2-.1.4-.3.6-.4.6-1 1-1.7 1-1.8 0-2.5-.9-3.4-3.1C1 15.4.7 15 0 15v-2c1.8 0 2.5.9 3.4 3.1C4 17.6 4.3 18 5 18v-2.1c0-.5.1-.8.4-1.1-2.2-.5-3.7-1.5-4.6-3.1l-.3-.8C.1 10 0 8.9 0 7.8c0-1.4.4-2.6 1.2-3.6C1 3.2 1 2 1.5.7l.2-.4.4-.1c.1 0 .1 0 .2-.1C3.2 0 4.4.3 6 1.3 7 1.1 8 1 9 1c.9 0 1.8.1 2.7.3C13.3.3 14.5 0 15.3.1h.2l.5.1.2.4c.5 1.2.5 2.3.4 3.2.9 1.1 1.4 2.5 1.4 4 0 1.3-.1 2.2-.4 3.1l-.3.8c-.7 1.6-2.3 2.6-4.7 3.1.3.4.4.7.4 1.2v4c-.9 0-1.5-.4-1.8-1.1-.2-.3-.2-.6-.2-.9v-2c0-.1 0-.1-.2-.3-.5-.5-.8-1-.8-1.7v-.9l.9-.1c2.7-.3 4.1-1 4.6-2.1l.2-.6c.2-.7.3-1.4.3-2.5 0-1.2-.4-2.1-1.2-2.9l-.4-.4.2-.6c.2-.5.2-1.1 0-1.8h-.1c-.5.1-1.2.5-2 1l-.4.2-.4-.1c-.8-.2-1.7-.3-2.6-.3-1 0-2 .1-2.9.4l-.5.1-.3-.2c-.9-.6-1.6-.9-2.1-1.1h-.1C3 2.9 3 3.5 3.2 4l.2.6-.4.5c-.6.7-1 1.6-1 2.7 0 1 .1 1.8.3 2.4l.3.6c.7 1.2 2 2 4.5 2.2l.9.1v.9c0 .7-.2 1.2-.8 1.7-.2.2-.2.2-.2.3v2z" clip-rule="evenodd"/>
</svg>
