<svg fill="none" viewBox="0 0 20.5 19">
	<path fill="currentColor" fill-rule="evenodd" d="M19.1 2.5l1.4.2-.6 1.3c-.3.6-.6 1.2-.9 1.9 0 .1-.1.2-.2.4 0 .1-.2.3-.2.3 0 .1-.1.1-.1.1V9c0 6.1-5.9 10-11.5 10-1.1 0-2-.1-3-.3-1.6-.4-2.9-1.1-3.4-2.3L0 15.1l1.4-.1c1.3-.1 2.4-.4 3.2-.7C2.3 14 1 13 1 11v-1h1c.2 0 .4 0 .6-.1C.9 9 0 7.3 0 5v-.2C0 3.6.1 3 .4 2.2c.2-.5.5-1 .9-1.4L2 0l.7.8C5.2 3.6 7.6 5.3 10 5.5 10 2.9 11.9 1 14.5 1c1.2 0 2.3.5 3.1 1.3.5.1 1 .1 1.5.2zm-2.2 1.7l-.3-.1-.2-.2c-.5-.6-1.2-.9-1.9-.9C13 3 12 4 12 5.5v.6c-.1.8-.6 1.4-1.5 1.4-3 0-5.7-1.6-8.3-4.3C2 3.6 2 4 2 4.8V5c0 2 .8 3.2 2.8 3.8l.7.2v.7c0 .9-.8 1.7-2.1 2.1.6.5 1.7.7 3.6.7h1v1c0 1.4-1.6 2.6-4.1 3.1.8.3 1.9.4 3.1.4 4.6 0 9.5-3.2 9.5-8V6.5c0-.3.1-.5.2-.8.1-.1.1-.2.2-.3 0 0 .1-.1.1-.2l.1-.2c.1-.3.3-.5.4-.8h-.6z" clip-rule="evenodd"/>
</svg>
