<svg fill="none" viewBox="0 0 22 16">
	<path fill="currentColor" fill-rule="evenodd" d="M21 14.1c.7-1.2 1-3.1 1-6.1 0-3.1-.3-4.9-1-6.1C20.3.7 19.5.3 17.9.2 16.8 0 14 0 11 0 8 0 5.2 0 4.1.1 2.5.2 1.7.6 1 1.9.3 3.1 0 4.9 0 8c0 3 .3 4.9 1 6.1.7 1.2 1.5 1.6 3.1 1.7 1.2.2 4.1.2 6.9.2 2.8 0 5.7 0 6.9-.1 1.6-.1 2.4-.5 3.1-1.8zm-3.2-12c1 .1 1.2.2 1.5.7.5.9.7 2.5.7 5.2s-.2 4.3-.7 5.1c-.3.6-.5.7-1.5.7-1.2.2-4 .2-6.8.2s-5.7 0-6.8-.1c-1-.1-1.2-.2-1.5-.7-.5-.9-.7-2.5-.7-5.2s.2-4.3.7-5.2c.3-.5.5-.6 1.5-.7C5.3 2 8 2 11 2s5.7 0 6.8.1zM9 5l5 3-5 3V5z" clip-rule="evenodd"/>
</svg>
