<svg fill="none" viewBox="0 0 24 14">
	<path fill="currentColor" d="M5 14c.6 0 1-.4 1-1s-.4-1-1-1v2zm-4-3H0h1zm5.2-9c.6 0 1-.4 1-1s-.4-1-1-1v2zM15 0c-.6 0-1 .4-1 1s.4 1 1 1V0zm-1.2 12c-.6 0-1 .4-1 1s.4 1 1 1v-2zM5 12H3v2h2v-2zm-2 0c-.6 0-1-.4-1-1H0c0 1.7 1.3 3 3 3v-2zm-1-1V3H0v8h2zm0-8c0-.6.4-1 1-1V0C1.3 0 0 1.3 0 3h2zm1-1h3.2V0H3v2zm12 0h2V0h-2v2zm2 0c.6 0 1 .4 1 1h2c0-1.7-1.3-3-3-3v2zm1 1v8h2V3h-2zm0 8c0 .6-.4 1-1 1v2c1.7 0 3-1.3 3-3h-2zm-1 1h-3.2v2H17v-2z"/>
	<path stroke="currentColor" stroke-linecap="round" stroke-linejoin="round" stroke-width="2" d="M23 8V6M11 1L7 7h6l-4 6"/>
</svg>
