<svg fill="none" viewBox="0 0 22 22">
	<path fill="currentColor" d="M21 17c.6 0 1-.4 1-1s-.4-1-1-1v2zM1 15c-.6 0-1 .4-1 1s.4 1 1 1v-2zm11.7 5l.9.5c.2-.3.2-.7 0-1-.2-.3-.5-.5-.9-.5v1zm-3.4 0v-1c-.4 0-.7.2-.9.5-.2.3-.2.7 0 1l.9-.5zM21 15H1v2h20v-2zM1 17c2.2 0 4-1.8 4-4H3c0 1.1-.9 2-2 2v2zm4-4V8H3v5h2zm0-5c0-3.3 2.7-6 6-6V0C6.6 0 3 3.6 3 8h2zm6-6c3.3 0 6 2.7 6 6h2c0-4.4-3.6-8-8-8v2zm6 6v5h2V8h-2zm0 5c0 2.2 1.8 4 4 4v-2c-1.1 0-2-.9-2-2h-2zm-5.1 6.5c-.2.3-.5.5-.9.5v2c1.1 0 2.1-.6 2.6-1.5l-1.7-1zm-.9.5c-.4 0-.7-.2-.9-.5l-1.7 1c.5.9 1.5 1.5 2.6 1.5v-2zm-1.7 1h3.5v-2H9.3v2z"/>
</svg>
