<svg fill="none" viewBox="0 0 24 24">
	<path fill="currentColor" d="M8.1 2c-.5.3-.7.9-.4 1.4.3.5.9.6 1.4.4L8.1 2zM19 9h-1 1zm-1 4c0 .6.4 1 1 1s1-.4 1-1h-2zm-1 5c.6 0 1-.4 1-1s-.4-1-1-1v2zM2 16c-.6 0-1 .4-1 1s.4 1 1 1v-2zm3-7h1-1zm1.7-2.8c.3-.5.1-1.1-.4-1.3-.6-.3-1.2-.1-1.4.4l1.8.9zm7.9 15.3c.3-.5.1-1.1-.4-1.4-.5-.3-1.1-.1-1.4.4l1.8 1zm-3.5-1c-.3-.5-.9-.6-1.4-.4-.5.3-.6.9-.4 1.4l1.8-1zm-2-16.7c1.9-1 4.1-1 6 0l1-1.7C13.6.7 10.6.6 8.1 2l1 1.8zm5.9 0c1.8 1.1 3 3.1 3 5.2h2c0-2.8-1.5-5.5-4-6.9l-1 1.7zM18 9v4h2V9h-2zm-1 7H2v2h15v-2zM2 18c2.2 0 4-1.8 4-4H4c0 1.1-.9 2-2 2v2zm4-4V9H4v5h2zm0-5c0-1 .2-1.9.7-2.8l-1.8-.9C4.3 6.5 4 7.7 4 9h2zm6.9 11.5c-.2.3-.5.5-.9.5v2c1.1 0 2.1-.6 2.6-1.5l-1.7-1zm-.9.5c-.4 0-.7-.2-.9-.5l-1.7 1c.5.9 1.5 1.5 2.6 1.5v-2z"/>
	<path stroke="currentColor" stroke-linecap="round" stroke-linejoin="round" stroke-width="2" d="M1 1l22 22"/>
</svg>
