<svg viewBox="0 0 40 32" xmlns="http://www.w3.org/2000/svg">
	<path d="m16.283 24.496c0-4.248-2.832-7.222-6.796-7.222-.49 0-1.114.068-1.5.11a5.526 5.526 0 0 1 -.341.032c.425-4.531 4.531-10.195 9.062-13.168l-5.239-4.248c-6.513 4.673-11.469 12.602-11.469 21.239 0 6.938 4.106 10.761 8.779 10.761 4.248 0 7.504-3.398 7.504-7.504zm17.84-24.496c-6.512 4.673-11.468 12.602-11.468 21.239 0 6.938 4.105 10.761 8.779 10.761 4.247 0 7.646-3.398 7.646-7.504 0-4.248-2.974-7.222-6.938-7.222-.284 0-.612.023-.913.05l-.928.092c.566-4.531 4.53-10.195 9.062-13.168z"/>
</svg>
