<svg fill="none" viewBox="0 0 24 24">
	<path stroke="currentColor" stroke-linecap="round" stroke-linejoin="round" stroke-width="2" d="M1 1l22 22"/>
	<path fill="currentColor" d="M21 22c.6 0 1-.4 1-1s-.4-1-1-1v2zM1 19H0h1zM6 7c.6 0 1-.4 1-1s-.4-1-1-1v2zm3-5c-.6 0-1 .4-1 1s.4 1 1 1V2zm6 1l.8-.6c-.2-.2-.5-.4-.8-.4v1zm2 3l-.8.6c.2.2.5.4.8.4V6zm5 11.3c0 .6.4 1 1 1s1-.4 1-1h-2zm-5.9-1.5c.3-.5.2-1.1-.3-1.4-.5-.3-1.1-.2-1.4.3l1.7 1.1zm-4.9 1.1l-.2 1 .2-1zm-3.1-3.1l-1 .2 1-.2zm2.2-3.3c.5-.3.6-.9.3-1.4-.3-.5-.9-.6-1.4-.3l1.1 1.7zM21 20H3v2h18v-2zM3 20c-.6 0-1-.4-1-1H0c0 1.7 1.3 3 3 3v-2zm-1-1V8H0v11h2zM2 8c0-.6.4-1 1-1V5C1.3 5 0 6.3 0 8h2zm1-1h3V5H3v2zm6-3h6V2H9v2zm5.2-.4l2 3 1.7-1.1-2-3-1.7 1.1zM17 7h4V5h-4v2zm4 0c.6 0 1 .4 1 1h2c0-1.7-1.3-3-3-3v2zm1 1v9.3h2V8h-2zm-7.5 6.7c-.7 1-1.9 1.5-3.1 1.2l-.4 2c2 .4 4-.4 5.1-2.1l-1.6-1.1zM11.4 16c-1.2-.2-2.1-1.2-2.3-2.3l-2 .4c.4 2 1.9 3.5 3.9 3.9l.4-2zM9 13.6c-.2-1.2.3-2.4 1.2-3.1l-1-1.6C7.5 10 6.7 12 7.1 14l1.9-.4z"/>
</svg>
