<svg fill="none" viewBox="0 0 22 18">
	<path fill="currentColor" d="M1.2 12.1c-.5-.1-1.1.3-1.2.8-.1.5.2 1.1.8 1.2l.4-2zm2.7 5.1c.1.5.7.9 1.2.8.5-.1.9-.6.8-1.2l-2 .4zM1.1 8.1c-.5-.1-1 .3-1.1.8-.1.5.3 1 .9 1.1l.2-1.9zm6.9 9c0 .6.5 1 1.1.9.5-.1.9-.6.9-1.1l-2 .2zM0 5c0 .6.4 1 1 1s1-.4 1-1H0zm13 11c-.6 0-1 .4-1 1s.4 1 1 1v-2zM.8 14.1c1.6.3 2.8 1.5 3.1 3.1l2-.4c-.5-2.4-2.3-4.2-4.7-4.7l-.4 2zM.9 10c3.7.4 6.7 3.3 7.1 7.1l2-.2c-.5-4.6-4.2-8.3-8.8-8.8L.9 10zM2 5V3H0v2h2zm0-2c0-.6.4-1 1-1V0C1.3 0 0 1.3 0 3h2zm1-1h16V0H3v2zm16 0c.6 0 1 .4 1 1h2c0-1.7-1.3-3-3-3v2zm1 1v12h2V3h-2zm0 12c0 .6-.4 1-1 1v2c1.7 0 3-1.3 3-3h-2zm-1 1h-6v2h6v-2z"/>
</svg>
