<svg fill="none" viewBox="0 0 24.1 24">
	<path fill="currentColor" d="M21.8 16.6c-.2.5 0 1.1.5 1.3.5.2 1.1 0 1.3-.5l-1.8-.8zm.5-4.4l-.8.6.8-.6zM18.1 10v1-1zm-1.2 0l-1 .2c.1.4.5.8 1 .8v-1zm-7-7c-.6 0-1 .4-1.1.9 0 .6.4 1 .9 1.1l.2-2zM5.6 5.9c.5-.3.7-.9.4-1.4s-.9-.6-1.4-.4l1 1.8zM9.1 20v-1 1zm9 0v1-1zm2.1.6c.5-.2.8-.8.6-1.3-.2-.5-.8-.8-1.3-.6l.7 1.9zm3.5-3.3c.8-1.9.6-4-.5-5.7l-1.7 1.1c.7 1.1.9 2.5.3 3.8l1.9.8zm-.6-5.6C22 10 20.1 9 18.1 9v2c1.3 0 2.6.7 3.3 1.8l1.7-1.1zm-5-2.7h-1.3v2h1.3V9zm-.3.8C16.9 6 13.7 3.3 9.9 3l-.2 2c3 .3 5.4 2.4 6.2 5.2l1.9-.4zM4.6 4.1C1 6.1-.8 10.3.3 14.3l1.9-.5c-.8-3.1.6-6.4 3.4-7.9l-1-1.8zM.3 14.3C1.4 18.3 5 21 9.1 21v-2c-3.2.1-6-2.1-6.9-5.2l-1.9.5zM9.1 21h9v-2h-9v2zm9 0c.7 0 1.4-.1 2-.4l-.7-1.9c-.4.2-.9.2-1.4.2l.1 2.1z"/>
	<path stroke="currentColor" stroke-linecap="round" stroke-linejoin="round" stroke-width="2" d="M1 1l22 22"/>
</svg>
