<svg fill="none" viewBox="0 0 24 24">
	<path fill="currentColor" d="M18.5 18.7c.4-.3.5-1 .2-1.4-.3-.4-1-.5-1.4-.2l1.2 1.6zM12 20v1-1zM1 12l-.9-.5c-.2.3-.2.6 0 .9L1 12zm5.7-5.1c.4-.3.5-1 .2-1.4-.4-.5-1-.6-1.4-.2l1.2 1.6zm3-3.6c-.6.1-.9.6-.8 1.2s.7.9 1.2.7l-.4-1.9zM12 4v1-1zm11 8l.9.5c.2-.3.2-.6 0-.9l-.9.4zm-2.9 2.5c-.4.4-.3 1.1.1 1.4.4.4 1.1.3 1.4-.1l-1.5-1.3zm-5.2.3c.4-.4.4-1 0-1.4-.4-.4-1-.4-1.4 0l1.4 1.4zm-5.9-2l1-.2-1 .2zm1.6-2.2c.4-.4.4-1 0-1.4-.4-.4-1-.4-1.4 0l1.4 1.4zm6.7 6.5C15.8 18.3 13.9 19 12 19v2c2.4 0 4.7-.8 6.5-2.3l-1.2-1.6zM12 19c-3.1 0-5.6-1.8-7.4-3.7-.9-.9-1.6-1.9-2-2.6-.2-.4-.4-.7-.5-.9-.1 0-.1-.1-.2-.2v-.1l-.9.4-.9.4v.1c0 .1.1.2.2.3.1.2.3.6.6 1 .5.8 1.3 1.8 2.3 2.9 2 2.1 5 4.3 8.9 4.3V19zM1.9 12.5c1.2-2.2 2.8-4.1 4.8-5.6L5.5 5.3C3.3 7 1.5 9.1.2 11.6l1.7.9zm8.2-7.3c.6-.1 1.3-.2 1.9-.2V3c-.8 0-1.6.1-2.3.3l.4 1.9zM12 5c3.1 0 5.6 1.8 7.4 3.7.9.9 1.6 1.9 2 2.6.2.4.4.7.5.9.1.1.1.2.1.2v.1l.9-.4.9-.4v-.1c0-.1-.1-.2-.2-.3-.1-.2-.3-.6-.6-1-.5-.8-1.3-1.8-2.3-2.9-2-2.1-5-4.3-8.9-4.3V5zm10.1 6.5c-.6 1.1-1.3 2.1-2 3l1.5 1.3c.9-1 1.6-2.2 2.3-3.4l-1.8-.9zm-8.7 1.9c-.5.5-1.2.8-2 .6l-.5 2c1.4.4 2.9-.1 3.9-1.1l-1.4-1.5zm-2 .6c-.7-.2-1.3-.7-1.4-1.4l-2 .5c.4 1.4 1.5 2.5 2.9 2.9l.5-2zM10 12.6c-.2-.7 0-1.5.6-2L9.2 9.1c-1.1 1-1.5 2.5-1.1 3.9l1.9-.4z"/>
	<path stroke="currentColor" stroke-linecap="round" stroke-linejoin="round" stroke-width="2" d="M1 1l22 22"/>
</svg>
