<svg fill="none" viewBox="0 0 21.5 23">
	<path fill="currentColor" d="M8.3 20c.5-.2.8-.7.7-1.2-.2-.5-.7-.8-1.2-.7l.5 1.9zm-7.1-4.9c-.5-.1-1.1.2-1.2.7-.1.5.2 1.1.7 1.2l.5-1.9zM14 22c0 .6.4 1 1 1s1-.4 1-1h-2zm1-3.8l-1-.1v.1h1zm-.9-2.7l-.1-1c-.4 0-.7.3-.8.7-.1.4 0 .8.2 1l.7-.7zm6.4-7h1-1zM19 4.8l-.9-.3c-.1.4-.1.8.2 1l.7-.7zM18.9 1l.9-.4c-.1-.3-.3-.5-.6-.6l-.3 1zM15 2.5l-.3 1c.3.1.6 0 .8-.1l-.5-.9zm-7 0l-.6.8c.3.2.6.2.9.2l-.3-1zM4.1 1l-.3-1c-.3.2-.5.4-.6.6l.9.4zM4 4.8l.7.7c.3-.3.3-.7.2-1l-.9.3zM2.5 8.6h1-1zm6.4 7l.7.7c.3-.3.4-.7.2-1-.1-.4-.4-.6-.8-.7l-.1 1zM8 18.2h1v-.1l-1 .1zM7 22c0 .6.4 1 1 1s1-.4 1-1H7zm.7-3.9c-1.1.3-1.9.3-2.4.2-.5-.1-.9-.4-1.2-.7-.2-.2-.3-.4-.5-.6-.2-.2-.4-.5-.6-.7-.4-.5-.9-1-1.8-1.2L.8 17c.2 0 .4.2.7.6.1.2.3.4.5.6.2.2.4.5.7.8.5.5 1.2 1 2.2 1.3 1 .2 2.1.2 3.4-.3l-.6-1.9zM16 22v-3.9h-2V22h2zm0-3.8c.1-1.3-.3-2.5-1.2-3.4l-1.4 1.4c.5.5.7 1.2.7 1.8l1.9.2zm-1.8-1.7c1.6-.2 3.5-.6 4.9-1.8 1.5-1.3 2.4-3.2 2.4-6.2h-2c0 2.5-.7 3.9-1.7 4.7-1 .8-2.4 1.2-3.9 1.4l.3 1.9zm7.3-8c0-1.7-.6-3.2-1.8-4.4l-1.4 1.4c.8.8 1.2 1.9 1.2 3.1l2-.1zm-1.6-3.4c.5-1.5.5-3.1-.1-4.5l-1.8.8c.4 1 .4 2 .1 3l1.8.7zm-1-4.1l.3-1h-.4c-.2 0-.6 0-.9.1-.8.2-1.9.6-3.3 1.6l1.1 1.7c1.3-.9 2.2-1.2 2.6-1.3.1-.1.3-.1.4-.1-.1 0-.1 0 .2-1zm-3.6.5c-2.5-.7-5.1-.7-7.5 0l.5 1.9c2.1-.6 4.4-.6 6.5 0l.5-1.9zm-6.7.2C7.1.7 6 .3 5.2.1 4.8 0 4.5 0 4.3 0h-.4l.3 1 .3 1c.1 0 .2 0 .5.1.5.1 1.4.4 2.6 1.3l1-1.7zM3.2.6c-.6 1.5-.7 3.1-.1 4.5L5 4.4c-.4-1-.3-2.1.1-3L3.2.6zm.1 3.5C2.1 5.3 1.5 6.9 1.5 8.6h2c0-1.1.4-2.3 1.2-3.1L3.3 4.1zM1.5 8.6c0 2.9.9 4.9 2.4 6.2 1.4 1.2 3.3 1.6 4.9 1.8l.2-2c-1.5-.2-2.9-.6-3.9-1.4-.9-.8-1.7-2.1-1.7-4.6H1.5zm6.7 6.3c-.8.9-1.3 2.1-1.2 3.3l2-.1c0-.7.2-1.3.7-1.8l-1.5-1.4zM7 18.2V22h2v-3.9H7z"/>
</svg>
