<svg fill="none" viewBox="0 0 20 20">
	<path stroke="currentColor" stroke-linecap="round" stroke-linejoin="round" stroke-width="2" d="M1 16v-6c0-5 4-9 9-9s9 4 9 9v6"/>
	<path fill="currentColor" d="M19 12h1c0-.6-.4-1-1-1v1zM1 12v-1c-.6 0-1 .4-1 1h1zm17 5c0 .6-.4 1-1 1v2c1.7 0 3-1.3 3-3h-2zm-1 1h-1v2h1v-2zm-1 0c-.6 0-1-.4-1-1h-2c0 1.7 1.3 3 3 3v-2zm-1-1v-3h-2v3h2zm0-3c0-.6.4-1 1-1v-2c-1.7 0-3 1.3-3 3h2zm1-1h3v-2h-3v2zm2-1v5h2v-5h-2zM0 17c0 1.7 1.3 3 3 3v-2c-.6 0-1-.4-1-1H0zm3 3h1v-2H3v2zm1 0c1.7 0 3-1.3 3-3H5c0 .6-.4 1-1 1v2zm3-3v-3H5v3h2zm0-3c0-1.7-1.3-3-3-3v2c.6 0 1 .4 1 1h2zm-3-3H1v2h3v-2zm-4 1v5h2v-5H0z"/>
</svg>
