<svg fill="none" viewBox="0 0 24 12">
	<path fill="currentColor" d="M15 0c-.6 0-1 .4-1 1s.4 1 1 1V0zm3 1V0v1zm-3 9c-.6 0-1 .4-1 1s.4 1 1 1v-2zm-6 2c.6 0 1-.4 1-1s-.4-1-1-1v2zM9 2c.6 0 1-.4 1-1s-.4-1-1-1v2zm6 0h3V0h-3v2zm3 0c1.1 0 2.1.4 2.8 1.2l1.4-1.4C21.1.6 19.6 0 18 0v2zm2.8 1.2c.8.7 1.2 1.7 1.2 2.8h2c0-1.6-.6-3.1-1.8-4.2l-1.4 1.4zM22 6c0 2.2-1.8 4-4 4v2c3.3 0 6-2.7 6-6h-2zm-4 4h-3v2h3v-2zm-9 0H6v2h3v-2zm-3 0c-1.1 0-2.1-.4-2.8-1.2l-1.4 1.4C2.9 11.4 4.4 12 6 12v-2zM3.2 8.8C2.4 8.1 2 7.1 2 6H0c0 1.6.6 3.1 1.8 4.2l1.4-1.4zM2 6c0-2.2 1.8-4 4-4V0C2.7 0 0 2.7 0 6h2zm4-4h3V0H6v2z"/>
	<path stroke="currentColor" stroke-linecap="round" stroke-linejoin="round" stroke-width="2" d="M8 6h8"/>
</svg>
