<svg fill="none" viewBox="0 0 20 20">
	<path fill="currentColor" d="M6 2c.6 0 1-.4 1-1s-.4-1-1-1v2zM0 6c0 .6.4 1 1 1s1-.4 1-1H0zm18 0c0 .6.4 1 1 1s1-.4 1-1h-2zm-4-6c-.6 0-1 .4-1 1s.4 1 1 1V0zm0 18c-.6 0-1 .4-1 1s.4 1 1 1v-2zm6-4c0-.6-.4-1-1-1s-1 .4-1 1h2zM2 14c0-.6-.4-1-1-1s-1 .4-1 1h2zm4 6c.6 0 1-.4 1-1s-.4-1-1-1v2zM6 0H3v2h3V0zM3 0C1.3 0 0 1.3 0 3h2c0-.6.4-1 1-1V0zM0 3v3h2V3H0zm20 3V3h-2v3h2zm0-3c0-1.7-1.3-3-3-3v2c.6 0 1 .4 1 1h2zm-3-3h-3v2h3V0zm-3 20h3v-2h-3v2zm3 0c1.7 0 3-1.3 3-3h-2c0 .6-.4 1-1 1v2zm3-3v-3h-2v3h2zM0 14v3h2v-3H0zm0 3c0 1.7 1.3 3 3 3v-2c-.6 0-1-.4-1-1H0zm3 3h3v-2H3v2z"/>
</svg>
