<svg fill="none" viewBox="0 0 24 24">
	<path stroke="currentColor" stroke-linecap="round" stroke-linejoin="round" stroke-width="2" d="M1 1l22 22"/>
	<path fill="currentColor" d="M10 9c0-.6-.4-1-1-1s-1 .5-1 1h2zm-1 3H8h1zm1.9 2.8l.4-.9-.4.9zm3.9 0c.4-.4.4-1 0-1.4-.4-.4-1-.4-1.4 0l1.4 1.4zM14 9.3c0 .6.4 1 1 1s1-.4 1-1h-2zM15 4h-1 1zm-2.7-3l.1-1-.1 1zM8.1 3.2c-.1.5.2 1.1.8 1.2.5.1 1-.3 1.1-.8l-1.9-.4zM8 9v3h2V9H8zm0 3c0 1.6 1 3.1 2.5 3.7l.8-1.8c-.7-.3-1.2-1-1.2-1.8L8 12zm2.5 3.7c1.5.6 3.2.3 4.4-.9l-1.4-1.4c-.6.6-1.4.7-2.2.4l-.8 1.9zM16 9.3V4h-2v5.3h2zM16 4c0-2.1-1.6-3.8-3.6-4l-.2 2c1 .1 1.8 1 1.8 2h2zm-3.6-4c-2-.2-3.9 1.2-4.3 3.2l2 .4c.2-1 1.1-1.7 2.2-1.6l.1-2zm5.3 17.7c.4-.4.4-1 0-1.4-.4-.4-1-.4-1.4 0l1.4 1.4zM5 12h1-1zm1-2c0-.6-.4-1-1-1s-1 .4-1 1h2zm14 0c0-.6-.4-1-1-1s-1 .4-1 1h2zm-1 2h1-1zm-1.1 1.1c-.1.5.3 1.1.8 1.2s1.1-.3 1.2-.8l-2-.4zm-1.6 3.2c-1.7 1.7-4.3 2.3-6.6 1.3l-.8 1.8c3 1.2 6.5.5 8.8-1.8l-1.4-1.3zm-6.6 1.3C7.5 16.7 6 14.5 6 12H4c0 3.3 1.9 6.2 4.9 7.5l.8-1.9zM6 12v-2H4v2h2zm12-2v2h2v-2h-2zm0 2c0 .4 0 .7-.1 1.1l2 .4c.1-.6.1-1 .1-1.5h-2z"/>
	<path stroke="currentColor" stroke-linecap="round" stroke-linejoin="round" stroke-width="2" d="M12 19v4m-4 0h8"/>
</svg>
