<svg fill="none" viewBox="0 0 20 20">
	<path fill="currentColor" d="M7 1c0-.6-.4-1-1-1S5 .4 5 1h2zM1 5c-.6 0-1 .4-1 1s.4 1 1 1V5zm18 2c.6 0 1-.4 1-1s-.4-1-1-1v2zm-4-6c0-.6-.4-1-1-1s-1 .4-1 1h2zm-2 18c0 .6.4 1 1 1s1-.4 1-1h-2zm6-4c.6 0 1-.4 1-1s-.4-1-1-1v2zM1 13c-.6 0-1 .4-1 1s.4 1 1 1v-2zm4 6c0 .6.4 1 1 1s1-.4 1-1H5zM5 1v3h2V1H5zm0 3c0 .6-.4 1-1 1v2c1.7 0 3-1.3 3-3H5zM4 5H1v2h3V5zm15 0h-3v2h3V5zm-3 0c-.6 0-1-.4-1-1h-2c0 1.7 1.3 3 3 3V5zm-1-1V1h-2v3h2zm0 15v-3h-2v3h2zm0-3c0-.6.4-1 1-1v-2c-1.7 0-3 1.3-3 3h2zm1-1h3v-2h-3v2zM1 15h3v-2H1v2zm3 0c.6 0 1 .4 1 1h2c0-1.7-1.3-3-3-3v2zm1 1v3h2v-3H5z"/>
</svg>
