<svg fill="none" viewBox="0 0 20 20">
	<path fill="currentColor" d="M7 15h1c0-.6-.4-1-1-1v1zm12-2h1c0-.6-.4-1-1-1v1zM7 14H3v2h4v-2zm-4 0c-1.7 0-3 1.3-3 3h2c0-.6.4-1 1-1v-2zm-3 3c0 1.7 1.3 3 3 3v-2c-.6 0-1-.4-1-1H0zm3 3h2v-2H3v2zm2 0c1.7 0 3-1.3 3-3H6c0 .6-.4 1-1 1v2zm3-3v-2H6v2h2zm11-5h-4v2h4v-2zm-4 0c-1.7 0-3 1.3-3 3h2c0-.6.4-1 1-1v-2zm-3 3c0 1.7 1.3 3 3 3v-2c-.6 0-1-.4-1-1h-2zm3 3h2v-2h-2v2zm2 0c1.7 0 3-1.3 3-3h-2c0 .6-.4 1-1 1v2zm3-3v-2h-2v2h2z"/>
	<path stroke="currentColor" stroke-linecap="round" stroke-linejoin="round" stroke-width="2" d="M7 15V3l12-2v12"/>
</svg>
