<svg fill="none" viewBox="0 0 22.9 22.9">
	<path fill="currentColor" d="M13.9 5l.2-1c-.4-.1-.9.1-1.1.5-.2.4-.1.9.2 1.2l.7-.7zm4 4l-.7.7c.3.3.8.3 1.2.1.4-.2.6-.6.5-1.1l-1 .3zm-4-8l.1-1c-.4 0-.8.2-1 .6-.2.4-.1.8.2 1.1l.7-.7zm8 7.9l-.7.7c.3.3.8.4 1.1.2.4-.2.6-.6.6-1l-1 .1zm-1 8h-1 1zm0 3h-1 1zm-2.2 2l-.1 1 .1-1zm-8.6-3l.5-.8-.5.8zm-6-6l.8-.5-.8.5zM1 4.2l-1 .1 1-.1zm.5-1.5l.7.7-.7-.7zM3 2V1v1zm3 0v1-1zm2 1.7l1-.1-1 .1zm.7 2.8l-.9.4.9-.4zm-.5 2.1l.8.7-.8-.7zM7 9.9l-.7-.7c-.3.3-.4.8-.2 1.2l.9-.5zm6 6l-.5.9c.4.2.9.2 1.2-.2l-.7-.7zm1.2-1.3l-.7-.7.7.7zm2.2-.4l-.4.9.4-.9zm2.8.7l.1-1-.1 1zM13.7 6c1.6.3 2.8 1.6 3.2 3.2l2-.4c-.5-2.4-2.3-4.3-4.7-4.7L13.7 6zm4.9 2.2l-3.9-4-1.4 1.4 3.9 3.9 1.4-1.3zM13.8 2c3.7.4 6.6 3.3 7.1 7.1l2-.2C22.4 4.2 18.7.5 14 0l-.2 2zm8.8 6.2L14.7.3l-1.4 1.4 8 7.9 1.3-1.4zm-2.7 8.7v3h2v-3h-2zm0 3c0 .3-.1.6-.3.7l1.4 1.5c.6-.6 1-1.4 1-2.2h-2.1zm-.3.8c-.2.2-.5.3-.8.3l-.2 2c.8.1 1.7-.2 2.3-.8l-1.3-1.5zm-.8.2c-2.9-.3-5.7-1.3-8.2-2.9l-1.1 1.7c2.7 1.8 5.8 2.9 9.1 3.2l.2-2zM10.6 18c-2.3-1.5-4.2-3.4-5.7-5.7l-1.7 1.1c1.6 2.5 3.8 4.7 6.3 6.3l1.1-1.7zm-5.7-5.7C3.3 9.8 2.3 7 2 4.1l-2 .2c.3 3.2 1.4 6.4 3.2 9.1l1.7-1.1zM2 4.1c0-.3.1-.6.3-.8L.8 2c-.6.6-.9 1.4-.8 2.3l2-.2zm.3-.8c.2-.2.4-.3.7-.3V1c-.8 0-1.6.4-2.2 1l1.5 1.3zM3 3h3V1H3v2zm3 0c.5 0 .9.4 1 .9l2-.3C8.8 2.1 7.5 1 6 1v2zm1 .9c.1 1 .4 2.1.8 3l1.9-.7c-.4-.9-.6-1.7-.7-2.6l-2 .3zm.8 3c.1.4 0 .8-.2 1.1L9 9.3c.8-.8 1-2 .6-3.1l-1.8.7zm-.3 1L6.3 9.2l1.4 1.4L9 9.3 7.5 7.9zm-1.4 2.5c1.5 2.7 3.7 4.9 6.4 6.4l1-1.7c-2.3-1.3-4.3-3.3-5.6-5.6l-1.8.9zm7.6 6.2l1.3-1.3-1.4-1.4-1.3 1.3 1.4 1.4zm1.3-1.2c.3-.3.7-.4 1.1-.2l.7-1.9c-1.1-.4-2.3-.1-3.2.7l1.4 1.4zm1-.3c1 .4 2 .6 3 .8l.3-2c-.9-.1-1.8-.3-2.6-.6l-.7 1.8zm3 .8c.5.1.9.5.9 1h2c0-1.5-1.1-2.8-2.6-3l-.3 2z"/>
</svg>
