<svg fill="none" viewBox="0 0 22 16.1">
	<path stroke="currentColor" stroke-linecap="round" stroke-linejoin="round" stroke-width="2" d="M11 10.1c1.1 0 2-.9 2-2s-.9-2-2-2-2 .9-2 2 .9 2 2 2z"/>
	<path fill="currentColor" d="M15.9 3.1c-.4-.4-1-.4-1.4 0s-.4 1 0 1.4l1.4-1.4zm-1.4 8.5c-.4.4-.4 1 0 1.4.4.4 1 .4 1.4 0l-1.4-1.4zM6.1 13c.4.4 1 .4 1.4 0 .4-.4.4-1 0-1.4L6.1 13zm1.4-8.5c.4-.4.4-1 0-1.4-.4-.4-1-.4-1.4 0l1.4 1.4zM18.8.3c-.4-.4-1-.4-1.4 0-.4.4-.4 1 0 1.4L18.8.3zm-1.4 14.1c-.4.4-.4 1 0 1.4.4.4 1 .4 1.4 0l-1.4-1.4zM3.2 15.8c.4.4 1 .4 1.4 0 .4-.4.4-1 0-1.4l-1.4 1.4zM4.6 1.7c.4-.4.4-1 0-1.4-.4-.4-1-.4-1.4 0l1.4 1.4zm9.9 2.8c1 1 1.5 2.2 1.5 3.6h2c0-1.9-.7-3.6-2.1-5l-1.4 1.4zM16 8.1c0 1.3-.5 2.6-1.5 3.5l1.4 1.4c1.3-1.3 2.1-3.1 2.1-5h-2zm-8.5 3.5C6.5 10.7 6 9.4 6 8.1H4c0 1.9.7 3.6 2.1 5l1.4-1.5zM6 8.1c0-1.3.5-2.6 1.5-3.5L6.1 3.1C4.7 4.4 4 6.2 4 8.1h2zm11.4-6.4c3.5 3.5 3.5 9.2 0 12.7l1.4 1.4c4.3-4.3 4.3-11.3 0-15.6l-1.4 1.5zM4.6 14.4c-3.5-3.5-3.5-9.2 0-12.7L3.2.3c-4.3 4.3-4.3 11.3 0 15.6l1.4-1.5z"/>
</svg>
