<svg fill="none" viewBox="0 0 24 20">
	<path stroke="currentColor" stroke-linecap="round" stroke-linejoin="round" stroke-width="2" d="M1 2v6h6m16 10v-6h-6"/>
	<path fill="currentColor" d="M19.5 7.3c.2.5.8.8 1.3.6.5-.2.8-.8.6-1.3l-1.9.7zM14 1.2l.2-1-.2 1zM5.6 3.6l.7.7-.7-.7zM.3 7.3c-.4.4-.4 1 0 1.4s1 .4 1.4 0L.3 7.3zm23.4 5.4c.4-.4.4-1 0-1.4s-1-.4-1.4 0l1.4 1.4zm-5.3 3.7l-.7-.7.7.7zM4.5 12.7c-.2-.5-.8-.8-1.3-.6-.5.2-.8.8-.6 1.3l1.9-.7zm16.9-6C20.3 3.5 17.5 1 14.2.3l-.4 2c2.7.6 4.9 2.5 5.8 5.1l1.8-.7zM14.2.2c-3.3-.8-6.9.3-9.3 2.7l1.4 1.4c1.9-1.9 4.7-2.8 7.4-2.1l.5-2zM5 2.9L.3 7.3l1.4 1.5 4.6-4.4L5 2.9zm17.3 8.4l-4.6 4.4 1.4 1.5 4.6-4.4-1.4-1.5zm-4.6 4.4c-1.9 1.9-4.7 2.8-7.4 2.1l-.4 2c3.3.8 6.9-.3 9.3-2.7l-1.5-1.4zm-7.5 2.1c-2.7-.6-4.9-2.5-5.8-5.1l-1.9.7c1.1 3.2 3.9 5.7 7.2 6.4l.5-2z"/>
</svg>
