<svg fill="none" viewBox="0 0 24 20">
	<path stroke="currentColor" stroke-linecap="round" stroke-linejoin="round" stroke-width="2" d="M23 2v6h-6M1 18v-6h6"/>
	<path fill="currentColor" d="M2.6 6.7c-.2.5.1 1.1.6 1.2.5.2 1.1-.1 1.3-.6l-1.9-.6zM10 1.2l-.2-1 .2 1zm8.4 2.4l-.7.7.7-.7zm3.9 5.1c.4.4 1 .4 1.4 0s.4-1 0-1.4l-1.4 1.4zM1.7 11.3c-.4-.4-1-.4-1.4 0s-.4 1 0 1.4l1.4-1.4zm3.9 5.1l.7-.7-.7.7zm15.8-3.1c.2-.5-.1-1.1-.6-1.3-.5-.2-1.1.1-1.3.6l1.9.7zm-16.9-6c.9-2.6 3.1-4.5 5.8-5.1l-.4-2C6.4 1 3.7 3.4 2.6 6.7l1.9.6zm5.7-5.1c2.7-.6 5.5.2 7.4 2.1L19 2.9C16.6.5 13.1-.5 9.7.2l.5 2zm7.5 2.2l4.6 4.4 1.4-1.5L19 2.9l-1.3 1.5zM.3 12.7L5 17.1l1.4-1.5-4.6-4.4-1.5 1.5zm4.6 4.4c2.4 2.4 5.9 3.4 9.3 2.7l-.4-2c-2.7.6-5.5-.2-7.4-2.1l-1.5 1.4zm9.3 2.6c3.3-.8 6.1-3.2 7.2-6.4l-1.9-.7c-.9 2.6-3.1 4.5-5.8 5.1l.5 2z"/>
</svg>
