<svg fill="none" viewBox="0 0 24 24">
	<path stroke="currentColor" stroke-linecap="round" stroke-linejoin="round" stroke-width="2" d="M12 15c1.7 0 3-1.3 3-3s-1.3-3-3-3-3 1.3-3 3 1.3 3 3 3z"/>
	<path stroke="currentColor" stroke-linecap="round" stroke-linejoin="round" stroke-width="2" d="M19.4 15c-.3.6-.1 1.3.3 1.8l.1.1c.4.4.6.9.6 1.4s-.2 1-.6 1.4c-.4.4-.9.6-1.4.6s-1-.2-1.4-.6l-.1-.1c-.5-.5-1.2-.6-1.8-.3-.6.3-1 .9-1 1.5v.2c0 1.1-.9 2-2 2s-2-.9-2-2v-.1c0-.7-.4-1.3-1.1-1.5-.6-.3-1.3-.1-1.8.3l-.1.1c-.4.4-.9.6-1.4.6s-1-.2-1.4-.6c-.4-.4-.6-.9-.6-1.4s.2-1 .6-1.4l.1-.1c.5-.5.6-1.2.3-1.8-.3-.6-.9-1-1.5-1H3c-1.1 0-2-.9-2-2s.9-2 2-2h.1c.7 0 1.3-.4 1.5-1.1.3-.6.1-1.3-.3-1.8l-.1-.1c-.4-.4-.6-.9-.6-1.4s.2-1 .6-1.4c.4-.4.9-.6 1.4-.6s1 .2 1.4.6l.1.1c.5.4 1.2.6 1.8.3H9c.6-.3 1-.9 1-1.5V3c0-1.1.9-2 2-2s2 .9 2 2v.1c0 .7.4 1.3 1 1.5.6.3 1.3.1 1.8-.3l.1-.1c.4-.4.9-.6 1.4-.6s1 .2 1.4.6c.4.4.6.9.6 1.4s-.2 1-.6 1.4l-.1.1c-.5.5-.6 1.2-.3 1.8V9c.3.6.9 1 1.5 1h.2c1.1 0 2 .9 2 2s-.9 2-2 2h-.1c-.6 0-1.2.4-1.5 1z"/>
</svg>
