<svg fill="none" viewBox="0 0 22 22">
	<path stroke="currentColor" stroke-linecap="round" stroke-linejoin="round" stroke-width="2" d="M11 21c5.5 0 10-4.5 10-10S16.5 1 11 1 1 5.5 1 11s4.5 10 10 10z"/>
	<path stroke="currentColor" stroke-linecap="round" stroke-linejoin="round" stroke-width="2" d="M11 17c3.3 0 6-2.7 6-6s-2.7-6-6-6-6 2.7-6 6 2.7 6 6 6z"/>
	<path stroke="currentColor" stroke-linecap="round" stroke-linejoin="round" stroke-width="2" d="M11 13c1.1 0 2-.9 2-2s-.9-2-2-2-2 .9-2 2 .9 2 2 2z"/>
</svg>
