<svg fill="none" viewBox="0 0 21.7 22">
	<path fill="currentColor" d="M8.7 14h1c0-.6-.4-1-1-1v1zm3 7v1c.4 0 .8-.2.9-.6l-.9-.4zm4-9l.9.4c.1-.1.1-.3.1-.4h-1zm0-11h1c0-.6-.4-1-1-1v1zM4.4 1v1-1zm-2 1.7l1 .2-1-.2zm-1.4 9l-1-.2 1 .2zm.5 1.6l-.8.7.8-.7zM3 14v-1 1zM15.7 1V0c-.6 0-1 .4-1 1h1zm2.7 0v1-1zm2.3 2h1v-.1l-1 .1zm0 7l1 .1V10h-1zm-2.3 2v-1 1zm-2.7 0h-1c0 .6.4 1 1 1v-1zm-8 2v4h2v-4h-2zm0 4c0 2.2 1.8 4 4 4v-2c-1.1 0-2-.9-2-2h-2zm4.9 3.4l4-9-1.8-.8-4 9 1.8.8zm4.1-9.4V1h-2v11h2zm-1-12H4.4v2h11.3V0zM4.4 0c-1.5 0-2.8 1.1-3 2.6l2 .3c.1-.5.5-.9 1-.9V0zm-3 2.5l-1.4 9 2 .3 1.4-9-2-.3zM0 11.6c-.1.9.1 1.8.7 2.4l1.5-1.3c-.1-.3-.2-.6-.2-.8l-2-.3zM.7 14c.6.7 1.4 1 2.3 1v-2c-.3 0-.6-.1-.8-.3L.7 14zM3 15h5.7v-2H3v2zM15.7 2h2.7V0h-2.7v2zm2.7 0c.7 0 1.2.5 1.3 1.1l2-.3C21.4 1.2 20 0 18.3 0l.1 2zm1.3 1v7h2V3h-2zm0 6.9c-.1.6-.7 1.1-1.3 1.1v2c1.7 0 3.1-1.2 3.3-2.9l-2-.2zM18.4 11h-2.7v2h2.7v-2zm-1.7 1V1h-2v11h2z"/>
</svg>
