<svg fill="none" viewBox="0 0 21.7 22">
	<path fill="currentColor" d="M13 8h-1c0 .6.4 1 1 1V8zm-3-7V0c-.4 0-.8.2-.9.6l.9.4zm-4 9l-.9-.4c-.1.1-.1.3-.1.4h1zm0 11H5c0 .6.4 1 1 1v-1zm11.3 0v-1 1zm2-1.7l-1-.2 1 .2zm1.4-9l1 .2-1-.2zm-.5-1.6l.7-.7-.7.7zM18.7 8v1-1zM6 21v1c.6 0 1-.4 1-1H6zm0-11h1c0-.6-.4-1-1-1v1zm8-2V4h-2v4h2zm0-4c0-2.2-1.8-4-4-4v2c1.1 0 2 .9 2 2h2zM9.1.6l-4 9 1.8.8 4-9L9.1.6zM5 10v11h2V10H5zm1 12h11.3v-2H6v2zm11.3 0c1.5 0 2.8-1.1 3-2.6l-2-.3c-.1.5-.5.9-1 .8V22zm3-2.5l1.4-9-2-.3-1.4 9 2 .3zm1.3-9c.1-.9-.1-1.8-.7-2.4l-1.5 1.3c.2.2.3.5.2.8l2 .3zM20.9 8c-.6-.7-1.4-1-2.3-1v2c.3 0 .6.1.8.3L20.9 8zm-2.2-1H13v2h5.7V7zM6 20H3v2h3v-2zm-3 0c-.6 0-1-.4-1-1H0c0 1.7 1.3 3 3 3v-2zm-1-1v-7H0v7h2zm0-7c0-.6.4-1 1-1V9c-1.7 0-3 1.3-3 3h2zm1-1h3V9H3v2zm2-1v11h2V10H5z"/>
</svg>
