<svg fill="none" viewBox="0 0 20 22">
	<path stroke="currentColor" stroke-linecap="round" stroke-linejoin="round" stroke-width="2" d="M1 5h18"/>
	<path fill="currentColor" d="M18 5c0-.6-.4-1-1-1s-1 .4-1 1h2zM4 5c0-.6-.4-1-1-1s-1 .4-1 1h2zm1 0c0 .6.4 1 1 1s1-.4 1-1H5zm8 0c0 .6.4 1 1 1s1-.4 1-1h-2zm3 0v14h2V5h-2zm0 14c0 .6-.4 1-1 1v2c1.7 0 3-1.3 3-3h-2zm-1 1H5v2h10v-2zM5 20c-.6 0-1-.4-1-1H2c0 1.7 1.3 3 3 3v-2zm-1-1V5H2v14h2zM7 5V3H5v2h2zm0-2c0-.6.4-1 1-1V0C6.3 0 5 1.3 5 3h2zm1-1h4V0H8v2zm4 0c.6 0 1 .4 1 1h2c0-1.7-1.3-3-3-3v2zm1 1v2h2V3h-2z"/>
	<path stroke="currentColor" stroke-linecap="round" stroke-linejoin="round" stroke-width="2" d="M8 10v6m4-6v6"/>
</svg>
