<svg fill="none" viewBox="0 0 24 22">
	<path fill="currentColor" d="M23 11v1c.3 0 .6-.1.7-.3.2-.2.3-.5.3-.8l-1 .1zM1 11l-1-.1c0 .3.1.6.3.8.1.2.4.3.7.3v-1zm17 7h1c0-.2-.1-.5-.2-.7l-.8.7zm-6-7l.8-.7c-.3-.3-.7-.4-1.1-.3-.4.2-.7.6-.7 1h1zm12-.1C23.4 4.7 18.2 0 12 0v2c5.2 0 9.5 3.9 10 9.1l2-.2zM12 0C5.8 0 .6 4.7 0 10.9l2 .2C2.5 5.9 6.8 2 12 2V0zM1 12h22v-2H1v2zm16 6c0 1.1-.9 2-2 2v2c2.2 0 4-1.8 4-4h-2zm-2 2c-1.1 0-2-.9-2-2h-2c0 2.2 1.8 4 4 4v-2zm-2-2v-7h-2v7h2zm-1.8-6.3l6 7 1.5-1.3-6-7-1.5 1.3z"/>
</svg>
