<svg fill="none" viewBox="0 0 24 24">
	<path fill="currentColor" d="M17 16c0-.6-.4-1-1-1s-1 .4-1 1h2zM1 17H0h1zM5 6c.6 0 1-.4 1-1s-.4-1-1-1v2zm5.7-2c-.6 0-1 .4-1 1s.4 1 1 1V4zm5.3 6.3h-1c0 .3.1.5.3.7l.7-.7zm1 1l-.7.7c.3.3.9.4 1.3.1l-.6-.8zM23 7h1c0-.4-.2-.7-.5-.9-.3-.2-.7-.1-1 .1l.5.8zm-1 10c0 .6.4 1 1 1s1-.4 1-1h-2zm-7-1v1h2v-1h-2zm0 1c0 .6-.4 1-1 1v2c1.7 0 3-1.3 3-3h-2zm-1 1H3v2h11v-2zM3 18c-.6 0-1-.4-1-1H0c0 1.7 1.3 3 3 3v-2zm-1-1V7H0v10h2zM2 7c0-.6.4-1 1-1V4C1.3 4 0 5.3 0 7h2zm1-1h2V4H3v2zm7.7 0H14V4h-3.3v2zM14 6c.6 0 1 .4 1 1h2c0-1.7-1.3-3-3-3v2zm1 1v3.3h2V7h-2zm.3 4l1 1 1.4-1.4-1-1-1.4 1.4zm2.3 1.2l6-4.3-1.2-1.6-6 4.3 1.2 1.6zM22 7v10h2V7h-2z"/>
	<path stroke="currentColor" stroke-linecap="round" stroke-linejoin="round" stroke-width="2" d="M1 1l22 22"/>
</svg>
