<svg fill="none" viewBox="0 0 22 16.1">
	<path stroke="currentColor" stroke-linecap="round" stroke-linejoin="round" stroke-width="2" d="M10 1.1l-5 4H1v6h4l5 4v-14z"/>
	<path fill="currentColor" d="M18.8.3c-.4-.4-1-.4-1.4 0-.4.4-.4 1 0 1.4L18.8.3zm-1.4 14.1c-.4.4-.4 1 0 1.4.4.4 1 .4 1.4 0l-1.4-1.4zM15.2 3.8c-.4-.4-1-.4-1.4 0-.4.4-.4 1 0 1.4l1.4-1.4zm-1.4 7.1c-.4.4-.4 1 0 1.4.4.4 1 .4 1.4 0l-1.4-1.4zm3.6-9.2c3.5 3.5 3.5 9.2 0 12.7l1.4 1.4c4.3-4.3 4.3-11.3 0-15.6l-1.4 1.5zm-3.6 3.5c1.6 1.6 1.6 4.1 0 5.7l1.4 1.4c2.3-2.3 2.3-6.1 0-8.5l-1.4 1.4z"/>
</svg>
