<svg fill="none" viewBox="0 0 16 24">
	<path stroke="currentColor" stroke-linecap="round" stroke-linejoin="round" stroke-width="2" d="M8 19c3.9 0 7-3.1 7-7s-3.1-7-7-7-7 3.1-7 7 3.1 7 7 7z"/>
	<path stroke="currentColor" stroke-linecap="round" stroke-linejoin="round" stroke-width="2" d="M8 9v3l1.5 1.5"/>
	<path fill="currentColor" d="M13.5 17.4c.1-.5-.4-1-.9-1.1-.5-.1-1 .4-1.1.9l2 .2zm-1.3 3.8l-1-.1 1 .1zm-2 1.8v-1 1zm-4.4 0v-1 1zm-2-1.8l1-.1-1 .1zm.7-3.9c-.1-.6-.5-1-1.1-.9-.5.1-1 .5-.9 1.1l2-.2zm-2-10.7c-.1.5.4 1 .9 1.1.5.1 1-.4 1.1-.9l-2-.2zm1.3-3.8l1 .1-1-.1zm2-1.8V0v1zm4.4 0v1-1zm2 1.8l-1 .1 1-.1zm-.7 3.9c.1.5.5 1 1.1.9.5-.1 1-.5.9-1.1l-2 .2zm0 10.6l-.4 3.8 2 .2.4-3.8-2-.2zm-.3 3.8c0 .5-.5.9-1 .9v2c1.6 0 2.9-1.2 3-2.7l-2-.2zm-1 .9H5.8v2h4.3v-2zm-4.4 0c-.5 0-1-.4-1-.9l-2 .2c.2 1.5 1.5 2.7 3 2.7v-2zm-1-.9l-.4-3.8-2 .2.3 3.8 2.1-.2zM4.5 6.7l.4-3.8-2-.2-.4 3.9 2 .1zm.3-3.8c0-.5.5-.9 1-.9V0C4.3 0 3 1.2 2.8 2.7l2 .2zm1-.9h4.4V0H5.8v2zm4.4 0c.5 0 1 .4 1 .9l2-.2C13 1.2 11.7 0 10.2 0v2zm1 .9l.3 3.8 2-.2-.4-3.8-1.9.2z"/>
</svg>
