<svg fill="none" viewBox="0 0 22 18">
	<path fill="currentColor" d="M7.9.9c-.4.4-.4 1 0 1.4.4.4 1 .4 1.4 0L7.9.9zM10 5V4v1zM1 4c-.6 0-1 .4-1 1s.4 1 1 1V4zm11.3 11.7c-.4-.4-1-.4-1.4 0-.4.4-.4 1 0 1.4l1.4-1.4zm1.7 1l.5.9-.5-.9zm.9-2.2l1-.3-1 .3zM13 13v1-1zM1 12c-.6 0-1 .4-1 1s.4 1 1 1v-2zm15-8c-.4.4-.4 1 0 1.4.4.4 1 .4 1.4 0L16 4zm2.5 5v1-1zM1 8c-.6 0-1 .4-1 1s.4 1 1 1V8zm8.3-5.7c.3-.3.8-.4 1.2-.2l1-1.7c-1.2-.7-2.7-.5-3.6.5l1.4 1.4zm1.2-.2c.4.2.6.7.5 1.1l1.9.5c.4-1.3-.2-2.7-1.4-3.4l-1 1.8zm.5 1.2c-.1.4-.5.7-1 .7v2c1.4 0 2.6-.9 2.9-2.2L11 3.3zM10 4H1v2h9V4zm.9 13.1c1 1 2.4 1.2 3.6.5l-1-1.7c-.4.2-.9.2-1.2-.2l-1.4 1.4zm3.6.5c1.2-.7 1.8-2.1 1.4-3.4l-1.9.5c.1.4-.1.9-.5 1.1l1 1.8zm1.4-3.4c-.3-1.3-1.5-2.2-2.9-2.2v2c.5 0 .9.3 1 .7l1.9-.5zM13 12H1v2h12v-2zm4.4-6.6c.5-.5 1.2-.6 1.8-.2l1-1.7c-1.3-.8-3.1-.6-4.2.5l1.4 1.4zm1.8-.2c.6.3.9 1 .7 1.7l1.9.5c.4-1.5-.3-3.1-1.6-3.9l-1 1.7zm.7 1.7c-.1.6-.7 1.1-1.4 1.1v2c1.6 0 3-1.1 3.4-2.6l-2-.5zM18.5 8H1v2h17.5V8z"/>
</svg>
