<svg fill="none" viewBox="0 0 22 19.4">
	<path fill="currentColor" fill-rule="evenodd" d="M2.9 0l1.5 1.4C2.9 3 2 5.1 2 7.4s.9 4.5 2.4 6.1l-1.5 1.4C1.1 12.9 0 10.3 0 7.4 0 4.6 1.1 2 2.9 0zm16.2 0C20.9 2 22 4.6 22 7.4c0 2.9-1.1 5.5-2.9 7.4l-1.5-1.4c1.5-1.6 2.4-3.7 2.4-6.1 0-2.3-.9-4.5-2.4-6.1L19.1 0zM7.7 19.4l.7-2h5.2l.7 2h2.1l-3.3-9.9c.6-.5.9-1.2.9-2.1 0-1.7-1.3-3-3-3s-3 1.3-3 3c0 .9.3 1.6.9 2.2l-3.3 9.9h2.1zm1.4-4l.7-2h2.6l.7 2h-4zm2.5-4l-.3-1h-.6l-.3 1h1.2zm.4-4c0 .6-.4 1-1 1s-1-.4-1-1 .4-1 1-1 1 .5 1 1zm6 0c0-1.8-.7-3.5-1.8-4.7l-1.5 1.4c.8.8 1.3 2 1.3 3.3 0 1.3-.5 2.5-1.3 3.4l1.5 1.4c1.1-1.3 1.8-2.9 1.8-4.8zM7.3 4.1L5.8 2.7C4.7 3.9 4 5.6 4 7.4c0 1.8.7 3.5 1.8 4.7l1.5-1.4C6.5 9.9 6 8.7 6 7.4c0-1.3.5-2.5 1.3-3.3z" clip-rule="evenodd"/>
</svg>
