<svg fill="none" viewBox="0 0 22 15.9">
	<path fill="currentColor" fill-rule="evenodd" d="M3.4 0l1.5 1.4C3.1 3 2 5.3 2 8c0 2.6 1.1 5 2.9 6.6L3.4 16C1.3 13.9 0 11.1 0 8c0-3.2 1.3-6 3.4-8zM8 8c0 1.7 1.3 3 3 3s3-1.3 3-3-1.3-3-3-3-3 1.3-3 3zm4 0c0 .6-.4 1-1 1s-1-.4-1-1 .4-1 1-1 1 .4 1 1zM7.9 4.1L6.4 2.7C4.9 4 4 5.9 4 8c0 2.1.9 4 2.4 5.2l1.5-1.4C6.7 10.9 6 9.5 6 8c0-1.6.7-3 1.9-3.9zM18.6 0C20.7 2 22 4.8 22 8c0 3.1-1.3 6-3.4 8l-1.5-1.4C18.9 13 20 10.6 20 8c0-2.6-1.1-5-2.9-6.6L18.6 0zM18 8c0-2.1-.9-4-2.4-5.2l-1.5 1.4C15.3 5 16 6.4 16 8s-.7 3-1.9 3.9l1.5 1.4C17.1 11.9 18 10 18 8z" clip-rule="evenodd"/>
</svg>
