<svg fill="none" viewBox="0 0 21.4 21.4">
	<path fill="currentColor" fill-rule="evenodd" d="M1.4 0L0 1.4l4 4C2.8 6 1.8 6.8.8 7.8l-.1.1 1.4 1.4s0-.1.1-.1c1-1 2.1-1.8 3.3-2.3L7 8.4c-1.3.5-2.5 1.2-3.5 2.3l1.4 1.4c1-1.1 2.3-1.8 3.6-2.1l1.8 1.8c-1.5.1-2.9.6-4 1.8L7.7 15c1.6-1.6 4.1-1.6 5.7 0l.1-.1 6.6 6.6 1.4-1.4L1.4 0zM12 7.8l4.2 4.2 1.4-1.4C16 9.1 14.1 8.1 12 7.8zM8.2 3.9L10 5.7c3.3-.2 6.6.9 9.1 3.4l1.4-1.4c-3.4-3.3-8-4.6-12.3-3.8zm3.7 12.4c-.8-.8-2-.8-2.8 0l1.4 1.4 1.4-1.4z" clip-rule="evenodd"/>
</svg>
