<svg fill="none" viewBox="0 0 22 12">
	<path fill="currentColor" fill-rule="evenodd" d="M0 8c0 2.2 1.8 4 4 4 1.5 0 2.8-.8 3.5-2h7.1c.7 1.2 2 2 3.5 2 2.2 0 4-1.8 4-4 0-.7-.2-1.4-.5-2 .2-.6.4-1.3.4-2 0-2.2-1.8-4-4-4-1.5 0-2.8.8-3.5 2h-7C6.8.8 5.5 0 4 0 1.8 0 0 1.8 0 4c0 .7.2 1.4.5 2-.3.6-.5 1.3-.5 2zm6.1 0l-.2.7c-.3.8-1 1.3-1.9 1.3-1.1 0-2-.9-2-2 0-.5.2-1 .5-1.3l.6-.7-.6-.7C2.2 5 2 4.5 2 4c0-1.1.9-2 2-2 .9 0 1.6.5 1.9 1.3l.2.7h9.8l.2-.7c.3-.8 1-1.3 1.9-1.3 1.1 0 2 .9 2 2 0 .5-.2 1-.5 1.3l-.6.7.6.7c.3.3.5.8.5 1.3 0 1.1-.9 2-2 2-.9 0-1.6-.5-1.9-1.3l-.2-.7H6.1z" clip-rule="evenodd"/>
</svg>
