<svg fill="none" viewBox="0 0 18 18">
	<path fill="currentColor" fill-rule="evenodd" d="M10 2.1C9.7 2 9.3 2 9 2s-.7 0-1 .1v-2c.3-.1.7-.1 1-.1s.7 0 1 .1v2zM4 9c0 2.8 2.2 5 5 5s5-2.2 5-5-2.2-5-5-5-5 2.2-5 5zm8 0c0 1.7-1.3 3-3 3s-3-1.3-3-3 1.3-3 3-3 3 1.3 3 3zm-2 8.9v-2c-.3.1-.7.1-1 .1s-.7 0-1-.1v2c.3.1.7.1 1 .1s.7 0 1-.1zM15.9 8h2c.1.3.1.7.1 1s0 .7-.1 1h-2c.1-.3.1-.7.1-1s0-.7-.1-1zM2 9c0-.3 0-.7.1-1h-2c-.1.3-.1.7-.1 1s0 .7.1 1h2C2 9.7 2 9.3 2 9zm11.2-5.6L14.6 2c.5.4 1 .9 1.4 1.4l-1.4 1.4c-.4-.5-.9-1-1.4-1.4zM2 3.4l1.4 1.4c.4-.5.9-1 1.4-1.4L3.4 2c-.5.4-1 .9-1.4 1.4zm12.6 9.8l1.4 1.4c-.4.5-.9 1-1.4 1.4l-1.4-1.4c.5-.4 1-.9 1.4-1.4zM3.4 16l1.4-1.4c-.5-.4-1-.9-1.4-1.4L2 14.6c.4.5.9 1 1.4 1.4z" clip-rule="evenodd"/>
</svg>
