<svg fill="none" viewBox="0 0 22 22">
	<path fill="currentColor" fill-rule="evenodd" d="M12 4.1c-.3-.1-.7-.1-1-.1s-.7 0-1 .1V0h2v4.1zM6 11c0 2.8 2.2 5 5 5s5-2.2 5-5-2.2-5-5-5-5 2.2-5 5zm8 0c0 1.7-1.3 3-3 3s-3-1.3-3-3 1.3-3 3-3 3 1.3 3 3zm-2 11v-4c-.3 0-.7.1-1 .1s-.7 0-1-.1v4h2zm5.9-12h4v2h-4c0-.3.1-.7.1-1s0-.7-.1-1zM4 11c0-.3 0-.7.1-1H0v2h4v-1zm11.2-5.6L18 2.5c.6.5 1 .9 1.5 1.5l-2.8 2.8c-.5-.5-1-1-1.5-1.4zM2.5 4l2.8 2.8c.4-.5.9-1 1.4-1.4L4 2.5C3.4 3 3 3.4 2.5 4zm14.1 11.2l2.8 2.8c-.4.5-.9 1-1.4 1.4l-2.8-2.8c.5-.4 1-.9 1.4-1.4zM4 19.5l2.8-2.8c-.5-.4-1-.9-1.4-1.4L2.5 18c.5.6.9 1 1.5 1.5z" clip-rule="evenodd"/>
</svg>
