<svg fill="none" viewBox="0 0 20 20">
	<path fill="currentColor" fill-rule="evenodd" d="M4.5 9C2 9 0 7 0 4.5S2 0 4.5 0 9 2 9 4.5 7 9 4.5 9zM0 15.5C0 18 2 20 4.5 20S9 18 9 15.5 7 11 4.5 11 0 13 0 15.5zm11 0c0 2.5 2 4.5 4.5 4.5s4.5-2 4.5-4.5-2-4.5-4.5-4.5-4.5 2-4.5 4.5zm0-11C11 7 13 9 15.5 9S20 7 20 4.5 18 0 15.5 0 11 2 11 4.5zM15.5 7C16.9 7 18 5.9 18 4.5S16.9 2 15.5 2 13 3.1 13 4.5 14.1 7 15.5 7zM7 4.5C7 5.9 5.9 7 4.5 7S2 5.9 2 4.5 3.1 2 4.5 2 7 3.1 7 4.5zM15.5 18c1.4 0 2.5-1.1 2.5-2.5S16.9 13 15.5 13 13 14.1 13 15.5s1.1 2.5 2.5 2.5zM7 15.5C7 16.9 5.9 18 4.5 18S2 16.9 2 15.5 3.1 13 4.5 13 7 14.1 7 15.5z" clip-rule="evenodd"/>
</svg>
