<svg fill="none" viewBox="0 0 22 16">
	<path fill="currentColor" fill-rule="evenodd" d="M18.8 6.3c.9-1 1.4-1.9 1.1-2.4-.2-.5-1.2-.8-2.6-.7.8.8 1.3 1.9 1.5 3.1zm-3.4-5C14.2.5 12.6 0 11 0 6.9 0 3.5 3.1 3 7.1.7 9.2-.5 11.3.2 13c.8 1.7 3.2 2.2 6.3 1.6 1.3.9 2.9 1.4 4.5 1.4 4.1 0 7.5-3.1 8-7.1 2.4-2.1 3.6-4.2 2.8-5.9-.8-1.7-3.2-2.2-6.4-1.7zM7.1 12.5C5.8 11.4 5 9.8 5 8c0-3.3 2.7-6 6-6s5.9 2.6 6 5.9c-1.3 1-2.9 2-4.7 2.8-1.9.9-3.7 1.5-5.2 1.8zm2.6 1.4c1.1-.4 2.2-.8 3.4-1.3 1.1-.5 2.2-1.1 3.2-1.7-1 1.9-3 3.2-5.3 3.2-.4-.1-.8-.1-1.3-.2zm-5.1-1c-1.4.1-2.4-.2-2.6-.7-.2-.5.2-1.4 1.1-2.4.3 1.1.9 2.2 1.5 3.1z" clip-rule="evenodd"/>
</svg>
