<svg fill="none" viewBox="0 0 20.8 18.2">
	<path fill="currentColor" fill-rule="evenodd" d="M2.5 6l2.2-1.1 1.6 3.3-2 6c.2.1.4.3.6.4 1.4-2.5 2.5-3.4 4.8-3.4 2.5 0 4.7 1.5 5.3 3.7l.9-.6c-.4-.5-.7-1-1-1.6-.3-.6-.4-.8-.8-2.2-.6-2-1-2.4-3-2.4h-1c-1.6 0-3-1.4-3-3 0-1.2-.9-2.1-3-2.7L2.5 6zm1.6 2.3l-1.4 4.3c-.3-.5-.5-.9-.5-1.4h-2c0 3.5 5.2 7 10 7s10-3.5 10-7h-2c0 .6-.3 1.2-.8 1.8-.2-.3-.4-.7-.6-1.1-.2-.5-.3-.7-.7-1.9-.2-.5-.3-1-.5-1.4 1.4-.6 2.7-.5 4.1.5l1.1-1.7C18.7 6 16.5 5.8 14.3 7c-.7-.5-1.7-.8-3.1-.8h-1c-.4 0-1-.6-1-1 0-2.6-2.1-4.2-5.8-5L2.2 0v2L0 6.4l2 2 1.8-.9.3.8zm2.6 7.2c1.1.4 2.3.7 3.5.7 1 0 2-.2 3-.5-.3-1.4-1.7-2.5-3.5-2.5-1.3 0-2 .6-3 2.3z" clip-rule="evenodd"/>
</svg>
