<svg fill="none" viewBox="0 0 20 20">
	<path fill="currentColor" fill-rule="evenodd" d="M10 20c1.7 0 3.4-.4 4.9-1.3l4.2.4-.4-4.2c.8-1.5 1.3-3.1 1.3-4.9 0-5.5-4.5-10-10-10S0 4.5 0 10s4.5 10 10 10zm4.1-3.1l.3-.2 2.5.2-.2-2.5.2-.3c.7-1.2 1.1-2.6 1.1-4.1 0-4.4-3.6-8-8-8s-8 3.6-8 8 3.6 8 8 8c1.5 0 2.9-.4 4.1-1.1zM10 15c.6 0 1-.4 1-1s-.4-1-1-1-1 .4-1 1 .4 1 1 1zm-1-3h2v-1l.2-.2c.1-.1.1-.1.4-.3C12.5 10 13 9 13 8c0-1.7-1.3-3-3-3S7 6.3 7 8h2c0-.6.4-1 1-1s1 .4 1 1c0 .3-.2.7-.5.8-.3.2-.4.2-.6.4-.6.5-1 1-1 1.8v1z" clip-rule="evenodd"/>
</svg>
