<svg fill="none" viewBox="0 0 15 18.7">
	<path fill="currentColor" fill-rule="evenodd" d="M15 9.4c0-3.6-.9-6.9-2.3-9.4l-1.8.9C12.2 3.1 13 6 13 9.4c0 3.3-.8 6.3-2.1 8.5l1.8.9c1.4-2.6 2.3-5.9 2.3-9.4zm-4 0c0-2.8-.7-5.4-2-7.5l-1.8.8C8.3 4.5 9 6.8 9 9.4c0 2.6-.7 4.9-1.8 6.6l1.8.9c1.3-2.1 2-4.7 2-7.5zM5.4 3.7C6.4 5.3 7 7.2 7 9.4c0 2.1-.6 4.1-1.6 5.7l-1.8-.9c.9-1.3 1.4-3 1.4-4.8s-.6-3.5-1.4-4.8l1.8-.9zM3 9.4C3 8 2.6 6.6 1.8 5.5L0 6.3c.6.9 1 1.9 1 3s-.3 2.1-1 3l1.8.9C2.5 12.1 3 10.8 3 9.4z" clip-rule="evenodd"/>
</svg>
