<svg fill="none" viewBox="0 0 20 20">
	<path fill="currentColor" fill-rule="evenodd" d="M2 7h2c0 .4.2.7.6.9.5.2 1.1 0 1.3-.4l.2-.5h7.8l.2.4c.2.5.8.7 1.3.4.4-.1.6-.4.6-.8h2v2H2V7zm13.1-2H18c1.1 0 2 .9 2 2v2c0 .8-.5 1.6-1.3 1.9v.5l-1.6 7c-.2.9-1 1.6-2 1.6H4.8c-.9 0-1.7-.7-2-1.6l-1.6-7c0-.2-.1-.4 0-.6C.5 10.6 0 9.8 0 9V7c0-1.1.9-2 2-2h2.9L7.1.6C7.4.1 8-.1 8.4.1c.5.3.7.9.5 1.3L7.1 5h5.8l-1.8-3.6c-.2-.5 0-1.1.4-1.3.5-.2 1.1 0 1.3.4L15.1 5zM3.2 11h13.5l-1.6 7H4.8l-1.6-7z" clip-rule="evenodd"/>
</svg>
