<svg fill="none" viewBox="0 0 20.1 20">
	<path fill="currentColor" fill-rule="evenodd" d="M4.1 2c-.2 0-.4 0-.5.1-.3-.5-.6-1-.9-1.3C2.1.2 1.2 0 0 0v2c.8 0 1.2.1 1.3.2.4.4.7 1.2.7 1.8v.1L3 11c-1.6.1-2.9 1.4-3 2.9v1c.1 1.6 1.4 2.9 2.9 3h.2c.4 1.2 1.5 2 2.8 2 1.3 0 2.4-.8 2.8-2H11c.4 1.2 1.5 2 2.8 2 1.7 0 3-1.3 3-3s-1.3-3-3-3c-1.3 0-2.4.8-2.8 2H8.8c-.4-1.2-1.5-2-2.8-2s-2.4.8-2.8 2H3c-.5 0-1-.5-1-1.1V14c0-.5.5-1 1-1h12.2c.8-.2 1.4-.8 1.7-1.6l.1-.2.3-.7c.4-.7.7-1.4 1.1-2.1.8-1.7 1.4-2.8 1.5-3C20.5 4.1 19.3 3 18 3L4.1 2zm10.7 9H5.1c-.1 0-.1-.1-.1-.1L4 4l13.9 1c-.2.5-.7 1.4-1.3 2.5-.3.7-.7 1.4-1 2.1l-.3.7-.1.3v.1c-.2.1-.3.2-.4.3zm-.8 7c.6 0 1-.4 1-1s-.4-1-1-1-1 .4-1 1 .4 1 1 1zm-7-1c0 .6-.4 1-1 1s-1-.4-1-1 .4-1 1-1 1 .4 1 1z" clip-rule="evenodd"/>
</svg>
