<svg fill="none" viewBox="0 0 22 16">
	<path fill="currentColor" fill-rule="evenodd" d="M22 14c0 1.1-.9 2-2 2H2c-1.1 0-2-.9-2-2v-3.1l.5-.3C1.4 10.1 2 9.1 2 8S1.4 5.9.5 5.4L0 5.1V2C0 .9.9 0 2 0h18c1.1 0 2 .9 2 2v3.1l-.5.3C20.6 5.9 20 6.9 20 8s.6 2.1 1.5 2.6l.5.3V14zm-4-6c0-1.6.8-3.1 2-4V2h-6c0 .6-.4 1-1 1s-1-.4-1-1H2v2c1.2.9 2 2.4 2 4s-.8 3.1-2 4v2h10c0-.6.4-1 1-1s1 .4 1 1h6v-2c-1.2-.9-2-2.4-2-4zm-5 4c.6 0 1-.4 1-1s-.4-1-1-1-1 .4-1 1 .4 1 1 1zm1-4c0 .6-.4 1-1 1s-1-.4-1-1 .4-1 1-1 1 .4 1 1zm-1-2c.6 0 1-.4 1-1s-.4-1-1-1-1 .4-1 1 .4 1 1 1z" clip-rule="evenodd"/>
</svg>
