<svg fill="none" viewBox="0 0 20 20">
	<path fill="currentColor" fill-rule="evenodd" d="M3 6c.6 0 1.2-.2 1.7-.5l2 1.5-2 1.5C4.2 8.2 3.6 8 3 8c-1.7 0-3 1.3-3 3s1.3 3 3 3 3-1.3 3-3c0-.3 0-.6-.1-.9l2.5-1.9 6.1 4.6 1.2-1.6L10 7l5.6-4.2-1.2-1.6-6.1 4.6-2.4-1.9c.1-.3.1-.6.1-.9 0-1.7-1.3-3-3-3S0 1.3 0 3s1.3 3 3 3zm14 2h-2V6h2v2zm1 3h2V9h-2v2zm0 1v2h2v-2h-2zm0 8v-2h2v2h-2zm0-5v2h2v-2h-2zm-3 5v-2h2v2h-2zm-3-2v2h2v-2h-2zm-6 2v-2h2v2H6zm3-2v2h2v-2H9zm-6 2v-2h2v2H3zm0-5v2h2v-2H3zm11-9h-2v2h2V6zm6 2h-2V6h2v2zM3 12c.6 0 1-.4 1-1s-.4-1-1-1-1 .4-1 1 .4 1 1 1zm1-9c0 .6-.4 1-1 1s-1-.4-1-1 .4-1 1-1 1 .4 1 1z" clip-rule="evenodd"/>
</svg>
