<svg fill="none" viewBox="0 0 20 20">
	<path fill="currentColor" fill-rule="evenodd" d="M3.5 5C3.2 4.5 3 3.8 3 3c0-1.6 1.2-3 3-3s3.3 1.2 4 3.1c.7-1.9 2.2-3.1 4-3.1 1.8 0 3 1.4 3 3 0 .8-.2 1.5-.5 2H18c1.1 0 2 .9 2 2v2c0 1.1-.9 2-2 2v7c0 1.1-.9 2-2 2H4c-1.1 0-2-.9-2-2v-7c-1.1 0-2-.9-2-2V7c0-1.1.9-2 2-2h1.5zM9 7H2v2h7V7zm9 2h-7V7h7v2zm-9 9v-7H4v7h5zm7 0h-5v-7h5v7zM6 2c-.6 0-1 .5-1 1 0 1.3 1 1.8 3.4 2C8.2 3.1 7.2 2 6 2zm5.5 3c.3-1.9 1.3-3 2.4-3 .6 0 1 .5 1 1 0 1.3-1 1.8-3.4 2z" clip-rule="evenodd"/>
</svg>
