<svg fill="none" viewBox="0 0 18 22">
	<path fill="currentColor" fill-rule="evenodd" d="M0 14c0 2.7 3 5.3 9 8 6-2.7 9-5.3 9-8V4c0-.8-.3-.9-1.1-1.4L16 2c-1.5-1-4-2-7-2-3.4 0-6.8 1.9-7 2l-.9.6C.3 3.1 0 3.2 0 4v10zm16-1.2V14c0 1.5-2.2 3.6-7 5.8-4.8-2.2-7-4.3-7-5.8V4.4l.1-.1c.3-.2.7-.5 1-.6C4 3.1 6.8 2 9 2c2.3 0 4.4.7 5.9 1.7.2.2.7.4 1 .6l.1.1v8.4zM12 8c1.1 0 2 .9 2 2v4c0 1.1-.9 2-2 2H6c-1.1 0-2-.9-2-2v-4c0-1.1.9-2 2-2V6c0-1.7 1.3-3 3-3s3 1.3 3 3v2zm-2-2v2H8V6c0-.6.4-1 1-1s1 .4 1 1zm-4 8v-4h6v4H6zm2-2c0 .6.4 1 1 1s1-.4 1-1-.4-1-1-1-1 .4-1 1z" clip-rule="evenodd"/>
</svg>
