<svg fill="none" viewBox="0 0 22 22">
	<path fill="currentColor" fill-rule="evenodd" d="M3.2 18.8c-.9-.9-1.2-2.3-.9-4.2C.8 13.5 0 12.3 0 11s.8-2.5 2.3-3.6c-.3-1.8 0-3.3.9-4.2.9-.9 2.4-1.2 4.2-.9C8.5.8 9.7 0 11 0s2.5.8 3.6 2.3c1.8-.3 3.3 0 4.2.9.9.9 1.2 2.3.9 4.2C21.2 8.5 22 9.7 22 11s-.8 2.5-2.3 3.6c.3 1.8 0 3.3-.9 4.2s-2.3 1.2-4.2.9C13.5 21.2 12.3 22 11 22s-2.5-.8-3.6-2.3c-1.8.3-3.3 0-4.2-.9zm4.5-1.2c.4-.1.8.1 1 .4.9 1.4 1.7 2 2.3 2s1.4-.6 2.3-2c.2-.3.6-.5 1-.4 1.6.3 2.6.2 3-.2.4-.4.6-1.4.2-3-.1-.4.1-.8.4-1 1.4-.9 2-1.7 2-2.3s-.6-1.4-2-2.3c-.3-.2-.5-.6-.4-1 .3-1.6.2-2.6-.2-3-.4-.4-1.4-.6-3-.2-.4.1-.8-.1-1-.4-.9-1.4-1.7-2-2.3-2S9.6 2.6 8.7 4c-.2.3-.6.5-1 .4-1.6-.3-2.6-.2-3 .2-.4.4-.6 1.4-.2 3 .1.4-.1.8-.4 1C2.6 9.6 2 10.4 2 11s.6 1.4 2 2.3c.3.2.5.6.4 1-.3 1.6-.2 2.6.2 3 .5.5 1.5.6 3.1.3zm6.6-10.3L10 11.6 7.7 9.3l-1.4 1.4 3.7 3.7 5.7-5.7-1.4-1.4z" clip-rule="evenodd"/>
</svg>
