<svg fill="none" viewBox="0 0 17 22">
	<path fill="currentColor" fill-rule="evenodd" d="M11 0H5c-.4 0-.8.3-1 .7L2.9 4.9C1.1 6.3 0 8.5 0 11c0 2.5 1.1 4.7 2.9 6.1L4 21.3c.2.4.6.7 1 .7h6c.4 0 .8-.3 1-.7l1.2-4.2c1.5-1.3 2.5-3.1 2.8-5.1h1v-2h-1.1c-.3-2-1.3-3.9-2.8-5.1L12 .7c-.2-.4-.6-.7-1-.7zM8 3c.9 0 1.8.2 2.7.5L10.2 2H5.8l-.5 1.5C6.2 3.2 7.1 3 8 3zM5.8 20l-.4-1.5c.8.3 1.7.5 2.6.5s1.8-.2 2.7-.5l-.5 1.5H5.8zm8.2-9c0 3.3-2.7 6-6 6s-6-2.7-6-6 2.7-6 6-6 6 2.7 6 6zm-5-1h2v2H7V7h2v3z" clip-rule="evenodd"/>
</svg>
