<svg fill="none" viewBox="0 0 22 18">
	<path fill="currentColor" fill-rule="evenodd" d="M20 2c1.1 0 2 .9 2 2v12c0 1.1-.9 2-2 2H2c-1.1 0-2-.9-2-2V2C0 .9.9 0 2 0h6c1.1 0 1.8.5 2.5 1.4 0 0 .1.1.1.2l.2.2.1.1.1.1h9zm0 14V4h-9c-.7 0-1.2-.3-1.7-1 0-.1-.2-.2-.2-.3-.1 0-.1-.1-.1-.1-.4-.5-.6-.6-1-.6H2v14h18zm-4.9-8.2C14.4 6.1 12.8 5 11 5c-1.5 0-2.8.7-3.6 1.9C6 7.4 5 8.7 5 10.3c0 2 1.6 3.7 3.6 3.7h5.2c1.8 0 3.2-1.5 3.2-3.2 0-1.4-.8-2.5-1.9-3zM13.8 12H8.6c-.9 0-1.6-.7-1.6-1.7 0-.9.7-1.7 1.6-1.7h.1C9.1 7.7 10 7 11 7c1.3 0 2.4 1.1 2.4 2.5v.1c.1 0 .3-.1.4-.1.7 0 1.2.6 1.2 1.2s-.5 1.3-1.2 1.3z" clip-rule="evenodd"/>
</svg>
